<?xml version="1.0" encoding="UTF-8" standalone="no"?>
<!DOCTYPE svg PUBLIC "-//W3C//DTD SVG 1.1//EN"
 "http://www.w3.org/Graphics/SVG/1.1/DTD/svg11.dtd">
<!-- Generated by graphviz version 2.40.1 (20161225.0304)
 -->
<!-- Title: %0 Pages: 1 -->
<svg width="2293pt" height="572pt"
 viewBox="0.00 0.00 2293.19 572.00" xmlns="http://www.w3.org/2000/svg" xmlns:xlink="http://www.w3.org/1999/xlink">
<g id="graph0" class="graph" transform="scale(1 1) rotate(0) translate(4 568)">
<title>%0</title>
<polygon fill="#ffffff" stroke="transparent" points="-4,4 -4,-568 2289.1893,-568 2289.1893,4 -4,4"/>
<g id="clust1" class="cluster">
<title>cluster_setup</title>
<polygon fill="none" stroke="#000000" points="32.1694,-50 32.1694,-241 136.7865,-241 136.7865,-50 32.1694,-50"/>
<text text-anchor="middle" x="84.4779" y="-224.4" font-family="Times,serif" font-size="14.00" fill="#000000">Setup</text>
</g>
<g id="clust3" class="cluster">
<title>cluster_analyses</title>
<polygon fill="none" stroke="#000000" points="196.9558,-192 196.9558,-448 849.4639,-448 849.4639,-192 196.9558,-192"/>
<text text-anchor="middle" x="523.2099" y="-431.4" font-family="Times,serif" font-size="14.00" fill="#000000">analyses/</text>
<text text-anchor="middle" x="523.2099" y="-414.6" font-family="Times,serif" font-size="14.00" fill="#000000">(.R)</text>
</g>
<g id="clust4" class="cluster">
<title>cluster_figures</title>
<polygon fill="none" stroke="#000000" points="1136.9435,-206 1136.9435,-408 1591.5013,-408 1591.5013,-206 1136.9435,-206"/>
<text text-anchor="middle" x="1364.2224" y="-391.4" font-family="Times,serif" font-size="14.00" fill="#000000">figures/</text>
<text text-anchor="middle" x="1364.2224" y="-374.6" font-family="Times,serif" font-size="14.00" fill="#000000">(.R)</text>
</g>
<g id="clust5" class="cluster">
<title>cluster_outputs</title>
<polygon fill="none" stroke="#000000" points="869.4639,-138 869.4639,-448 1116.9435,-448 1116.9435,-138 869.4639,-138"/>
<text text-anchor="middle" x="993.2037" y="-431.4" font-family="Times,serif" font-size="14.00" fill="#000000">outputs/</text>
<text text-anchor="middle" x="993.2037" y="-414.6" font-family="Times,serif" font-size="14.00" fill="#000000">(.csv)</text>
</g>
<g id="clust6" class="cluster">
<title>cluster_manuscript</title>
<polygon fill="none" stroke="#000000" points="1701.3975,-8 1701.3975,-556 2060.2039,-556 2060.2039,-8 1701.3975,-8"/>
<text text-anchor="middle" x="1880.8007" y="-539.4" font-family="Times,serif" font-size="14.00" fill="#000000">manuscript/</text>
</g>
<g id="clust7" class="cluster">
<title>cluster_body</title>
<polygon fill="none" stroke="#000000" points="1709.3975,-68 1709.3975,-523 1941.3091,-523 1941.3091,-68 1709.3975,-68"/>
<text text-anchor="middle" x="1825.3533" y="-506.4" font-family="Times,serif" font-size="14.00" fill="#000000">Body</text>
</g>
<!-- setup -->
<g id="node1" class="node">
<title>setup</title>
<ellipse fill="none" stroke="#a020f0" cx="84.4779" cy="-130" rx="44.1179" ry="18"/>
<text text-anchor="middle" x="84.4779" y="-125.8" font-family="Helvetica,sans-Serif" font-size="14.00" fill="#000000">setup.R</text>
</g>
<!-- packrat -->
<g id="node2" class="node">
<title>packrat</title>
<polygon fill="none" stroke="#c0c0c0" points="117.2678,-94 51.688,-94 51.688,-58 117.2678,-58 117.2678,-94"/>
<text text-anchor="middle" x="84.4779" y="-71.8" font-family="Helvetica,sans-Serif" font-size="14.00" fill="#000000">packrat/</text>
</g>
<!-- setup&#45;&gt;packrat -->
<g id="edge1" class="edge">
<title>setup&#45;&gt;packrat</title>
<path fill="none" stroke="#000000" d="M105.0307,-114.0314C107.5059,-110.7162 108.8654,-107.4011 109.1091,-104.086"/>
<polygon fill="#000000" stroke="#000000" points="112.4218,-102.9211 106.4928,-94.1406 105.6521,-104.7021 112.4218,-102.9211"/>
</g>
<!-- functions -->
<g id="node3" class="node">
<title>functions</title>
<polygon fill="none" stroke="#c0c0c0" points="122.3868,-207.6019 46.5691,-207.6019 46.5691,-166.3981 122.3868,-166.3981 122.3868,-207.6019"/>
<text text-anchor="middle" x="84.4779" y="-191.2" font-family="Helvetica,sans-Serif" font-size="14.00" fill="#000000">functions/</text>
<text text-anchor="middle" x="84.4779" y="-174.4" font-family="Helvetica,sans-Serif" font-size="14.00" fill="#000000">(.R)</text>
</g>
<!-- setup&#45;&gt;functions -->
<g id="edge3" class="edge">
<title>setup&#45;&gt;functions</title>
<path fill="none" stroke="#000000" d="M84.4779,-148.2578C84.4779,-150.8621 84.4779,-153.4663 84.4779,-156.0706"/>
<polygon fill="#000000" stroke="#000000" points="80.978,-156.1155 84.4779,-166.1155 87.978,-156.1156 80.978,-156.1155"/>
</g>
<!-- packrat&#45;&gt;setup -->
<g id="edge2" class="edge">
<title>packrat&#45;&gt;setup</title>
<path fill="none" stroke="#000000" d="M62.463,-94.1406C60.3509,-97.6629 59.4984,-101.1853 59.9055,-104.7076"/>
<polygon fill="#000000" stroke="#000000" points="56.7521,-106.234 63.9251,-114.0314 63.1802,-103.4628 56.7521,-106.234"/>
</g>
<!-- data_processing -->
<g id="node4" class="node">
<title>data_processing</title>
<ellipse fill="none" stroke="#0000ff" cx="84.4779" cy="-367" rx="84.4558" ry="29.3315"/>
<text text-anchor="middle" x="84.4779" y="-371.2" font-family="Helvetica,sans-Serif" font-size="14.00" fill="#000000">data&#45;processing/</text>
<text text-anchor="middle" x="84.4779" y="-354.4" font-family="Helvetica,sans-Serif" font-size="14.00" fill="#000000">(.R)</text>
</g>
<!-- derived_data -->
<g id="node16" class="node">
<title>derived_data</title>
<polygon fill="none" stroke="#c0c0c0" points="148.7942,-319.6019 20.1616,-319.6019 20.1616,-278.3981 148.7942,-278.3981 148.7942,-319.6019"/>
<text text-anchor="middle" x="84.4779" y="-303.2" font-family="Helvetica,sans-Serif" font-size="14.00" fill="#000000">data/derived&#45;data/</text>
<text text-anchor="middle" x="84.4779" y="-286.4" font-family="Helvetica,sans-Serif" font-size="14.00" fill="#000000">(.csv, .tiff)</text>
</g>
<!-- data_processing&#45;&gt;derived_data -->
<g id="edge5" class="edge">
<title>data_processing&#45;&gt;derived_data</title>
<path fill="none" stroke="#000000" d="M84.4779,-337.4492C84.4779,-334.9559 84.4779,-332.4625 84.4779,-329.9692"/>
<polygon fill="#000000" stroke="#000000" points="87.978,-329.7187 84.4779,-319.7188 80.978,-329.7188 87.978,-329.7187"/>
</g>
<!-- import_derived_data -->
<g id="node5" class="node">
<title>import_derived_data</title>
<ellipse fill="none" stroke="#0000ff" cx="302.0803" cy="-299" rx="97.2492" ry="29.3315"/>
<text text-anchor="middle" x="302.0803" y="-303.2" font-family="Helvetica,sans-Serif" font-size="14.00" fill="#000000">Import derived&#45;data</text>
<text text-anchor="middle" x="302.0803" y="-286.4" font-family="Helvetica,sans-Serif" font-size="14.00" fill="#000000">(.R)</text>
</g>
<!-- analyse_rough -->
<g id="node6" class="node">
<title>analyse_rough</title>
<ellipse fill="none" stroke="#00ff00" cx="638.3344" cy="-326" rx="180.6941" ry="18"/>
<text text-anchor="middle" x="638.3344" y="-321.8" font-family="Helvetica,sans-Serif" font-size="14.00" fill="#000000">04_analyse&#45;roughness&#45;across&#45;scales.R</text>
</g>
<!-- import_derived_data&#45;&gt;analyse_rough -->
<g id="edge7" class="edge">
<title>import_derived_data&#45;&gt;analyse_rough</title>
<path fill="none" stroke="#000000" d="M396.193,-306.5569C424.5064,-308.8304 456.3187,-311.3848 487.3444,-313.876"/>
<polygon fill="#000000" stroke="#000000" points="487.1365,-317.3705 497.3846,-314.6822 487.6968,-310.393 487.1365,-317.3705"/>
</g>
<!-- analyse_tdist -->
<g id="node7" class="node">
<title>analyse_tdist</title>
<ellipse fill="none" stroke="#00ff00" cx="638.3344" cy="-380" rx="194.0094" ry="18"/>
<text text-anchor="middle" x="638.3344" y="-375.8" font-family="Helvetica,sans-Serif" font-size="14.00" fill="#000000">05_analyse&#45;species&#45;turnover&#45;w&#45;distance.R</text>
</g>
<!-- import_derived_data&#45;&gt;analyse_tdist -->
<g id="edge8" class="edge">
<title>import_derived_data&#45;&gt;analyse_tdist</title>
<path fill="none" stroke="#000000" d="M354.467,-323.8353C378.5713,-334.3216 407.8392,-345.7568 435.2048,-353 453.9606,-357.9643 473.9437,-362.0389 493.7801,-365.3775"/>
<polygon fill="#000000" stroke="#000000" points="493.3832,-368.8588 503.815,-367.0073 494.5055,-361.9493 493.3832,-368.8588"/>
</g>
<!-- analyse_trich -->
<g id="node8" class="node">
<title>analyse_trich</title>
<ellipse fill="none" stroke="#00ff00" cx="638.3344" cy="-218" rx="203.2592" ry="18"/>
<text text-anchor="middle" x="638.3344" y="-213.8" font-family="Helvetica,sans-Serif" font-size="14.00" fill="#000000">06_analyse&#45;species&#45;turnover&#45;and&#45;richness.R</text>
</g>
<!-- import_derived_data&#45;&gt;analyse_trich -->
<g id="edge9" class="edge">
<title>import_derived_data&#45;&gt;analyse_trich</title>
<path fill="none" stroke="#000000" d="M354.467,-274.1647C378.5713,-263.6784 407.8392,-252.2432 435.2048,-245 453.2892,-240.2134 472.5147,-236.254 491.6495,-232.9839"/>
<polygon fill="#000000" stroke="#000000" points="492.3438,-236.4168 501.6409,-231.336 491.2046,-229.5101 492.3438,-236.4168"/>
</g>
<!-- analyse_rrich -->
<g id="node9" class="node">
<title>analyse_rrich</title>
<ellipse fill="none" stroke="#00ff00" cx="638.3344" cy="-272" rx="173.7669" ry="18"/>
<text text-anchor="middle" x="638.3344" y="-267.8" font-family="Helvetica,sans-Serif" font-size="14.00" fill="#000000">07_analyse&#45;species&#45;and&#45;roughness.R</text>
</g>
<!-- import_derived_data&#45;&gt;analyse_rrich -->
<g id="edge10" class="edge">
<title>import_derived_data&#45;&gt;analyse_rrich</title>
<path fill="none" stroke="#000000" d="M396.193,-291.4431C425.4706,-289.0922 458.4895,-286.4409 490.5113,-283.8697"/>
<polygon fill="#000000" stroke="#000000" points="491.1792,-287.3274 500.8669,-283.0381 490.6188,-280.3499 491.1792,-287.3274"/>
</g>
<!-- out_rough -->
<g id="node18" class="node">
<title>out_rough</title>
<polygon fill="none" stroke="#c0c0c0" points="1092.5172,-344 893.8903,-344 893.8903,-308 1092.5172,-308 1092.5172,-344"/>
<text text-anchor="middle" x="993.2037" y="-321.8" font-family="Helvetica,sans-Serif" font-size="14.00" fill="#000000">04_roughness&#45;across&#45;scales/</text>
</g>
<!-- analyse_rough&#45;&gt;out_rough -->
<g id="edge11" class="edge">
<title>analyse_rough&#45;&gt;out_rough</title>
<path fill="none" stroke="#000000" d="M819.1478,-326C841.0968,-326 862.9768,-326 883.4438,-326"/>
<polygon fill="#000000" stroke="#000000" points="883.69,-329.5001 893.69,-326 883.69,-322.5001 883.69,-329.5001"/>
</g>
<!-- out_tdist -->
<g id="node19" class="node">
<title>out_tdist</title>
<polygon fill="none" stroke="#c0c0c0" points="1102.4549,-398 883.9526,-398 883.9526,-362 1102.4549,-362 1102.4549,-398"/>
<text text-anchor="middle" x="993.2037" y="-375.8" font-family="Helvetica,sans-Serif" font-size="14.00" fill="#000000">05_species&#45;turnover&#45;w&#45;distance/</text>
</g>
<!-- analyse_tdist&#45;&gt;out_tdist -->
<g id="edge12" class="edge">
<title>analyse_tdist&#45;&gt;out_tdist</title>
<path fill="none" stroke="#000000" d="M832.3819,-380C846.4368,-380 860.3514,-380 873.7688,-380"/>
<polygon fill="#000000" stroke="#000000" points="873.9264,-383.5001 883.9264,-380 873.9264,-376.5001 873.9264,-383.5001"/>
</g>
<!-- out_trich -->
<g id="node20" class="node">
<title>out_trich</title>
<polygon fill="none" stroke="#c0c0c0" points="1109.1838,-236 877.2236,-236 877.2236,-200 1109.1838,-200 1109.1838,-236"/>
<text text-anchor="middle" x="993.2037" y="-213.8" font-family="Helvetica,sans-Serif" font-size="14.00" fill="#000000">06_species&#45;turnover&#45;and&#45;richness/</text>
</g>
<!-- analyse_trich&#45;&gt;out_trich -->
<g id="edge13" class="edge">
<title>analyse_trich&#45;&gt;out_trich</title>
<path fill="none" stroke="#000000" d="M841.6778,-218C850.2655,-218 858.7704,-218 867.1098,-218"/>
<polygon fill="#000000" stroke="#000000" points="867.1943,-221.5001 877.1943,-218 867.1942,-214.5001 867.1943,-221.5001"/>
</g>
<!-- out_rrich -->
<g id="node21" class="node">
<title>out_rrich</title>
<polygon fill="none" stroke="#c0c0c0" points="1087.4219,-290 898.9855,-290 898.9855,-254 1087.4219,-254 1087.4219,-290"/>
<text text-anchor="middle" x="993.2037" y="-267.8" font-family="Helvetica,sans-Serif" font-size="14.00" fill="#000000">07_species&#45;and&#45;roughness/</text>
</g>
<!-- analyse_rrich&#45;&gt;out_rrich -->
<g id="edge14" class="edge">
<title>analyse_rrich&#45;&gt;out_rrich</title>
<path fill="none" stroke="#000000" d="M812.1305,-272C838.2528,-272 864.4803,-272 888.547,-272"/>
<polygon fill="#000000" stroke="#000000" points="888.7225,-275.5001 898.7224,-272 888.7224,-268.5001 888.7225,-275.5001"/>
</g>
<!-- figure_setup -->
<g id="node10" class="node">
<title>figure_setup</title>
<ellipse fill="none" stroke="#0000ff" cx="1248.2715" cy="-286" rx="103.1561" ry="18"/>
<text text-anchor="middle" x="1248.2715" y="-281.8" font-family="Helvetica,sans-Serif" font-size="14.00" fill="#000000">figures/figure&#45;setup.R</text>
</g>
<!-- make_fig1 -->
<g id="node11" class="node">
<title>make_fig1</title>
<ellipse fill="none" stroke="#0000ff" cx="1485.5503" cy="-286" rx="97.9019" ry="18"/>
<text text-anchor="middle" x="1485.5503" y="-281.8" font-family="Helvetica,sans-Serif" font-size="14.00" fill="#000000">figures/make&#45;fig&#45;1.R</text>
</g>
<!-- figure_setup&#45;&gt;make_fig1 -->
<g id="edge19" class="edge">
<title>figure_setup&#45;&gt;make_fig1</title>
<path fill="none" stroke="#000000" d="M1351.6552,-286C1360.1826,-286 1368.8169,-286 1377.3779,-286"/>
<polygon fill="#000000" stroke="#000000" points="1377.3834,-289.5001 1387.3834,-286 1377.3834,-282.5001 1377.3834,-289.5001"/>
</g>
<!-- make_fig2 -->
<g id="node12" class="node">
<title>make_fig2</title>
<ellipse fill="none" stroke="#0000ff" cx="1485.5503" cy="-340" rx="97.9019" ry="18"/>
<text text-anchor="middle" x="1485.5503" y="-335.8" font-family="Helvetica,sans-Serif" font-size="14.00" fill="#000000">figures/make&#45;fig&#45;2.R</text>
</g>
<!-- figure_setup&#45;&gt;make_fig2 -->
<g id="edge20" class="edge">
<title>figure_setup&#45;&gt;make_fig2</title>
<path fill="none" stroke="#000000" d="M1311.2349,-300.3292C1342.8385,-307.5216 1381.2589,-316.2653 1413.9787,-323.7117"/>
<polygon fill="#000000" stroke="#000000" points="1413.4088,-327.1714 1423.9362,-325.9778 1414.9622,-320.346 1413.4088,-327.1714"/>
</g>
<!-- make_fig3 -->
<g id="node13" class="node">
<title>make_fig3</title>
<ellipse fill="none" stroke="#0000ff" cx="1485.5503" cy="-232" rx="97.9019" ry="18"/>
<text text-anchor="middle" x="1485.5503" y="-227.8" font-family="Helvetica,sans-Serif" font-size="14.00" fill="#000000">figures/make&#45;fig&#45;3.R</text>
</g>
<!-- figure_setup&#45;&gt;make_fig3 -->
<g id="edge21" class="edge">
<title>figure_setup&#45;&gt;make_fig3</title>
<path fill="none" stroke="#000000" d="M1311.2349,-271.6708C1342.8385,-264.4784 1381.2589,-255.7347 1413.9787,-248.2883"/>
<polygon fill="#000000" stroke="#000000" points="1414.9622,-251.654 1423.9362,-246.0222 1413.4088,-244.8286 1414.9622,-251.654"/>
</g>
<!-- figures -->
<g id="node17" class="node">
<title>figures</title>
<polygon fill="none" stroke="#c0c0c0" points="1681.3457,-280.6019 1619.5531,-280.6019 1619.5531,-239.3981 1681.3457,-239.3981 1681.3457,-280.6019"/>
<text text-anchor="middle" x="1650.4494" y="-264.2" font-family="Helvetica,sans-Serif" font-size="14.00" fill="#000000">figures/</text>
<text text-anchor="middle" x="1650.4494" y="-247.4" font-family="Helvetica,sans-Serif" font-size="14.00" fill="#000000">(.png)</text>
</g>
<!-- make_fig1&#45;&gt;figures -->
<g id="edge22" class="edge">
<title>make_fig1&#45;&gt;figures</title>
<path fill="none" stroke="#000000" d="M1560.2803,-274.2172C1577.1742,-271.5535 1594.5042,-268.821 1609.3997,-266.4724"/>
<polygon fill="#000000" stroke="#000000" points="1609.9549,-269.9282 1619.2878,-264.9133 1608.8647,-263.0136 1609.9549,-269.9282"/>
</g>
<!-- make_fig2&#45;&gt;figures -->
<g id="edge23" class="edge">
<title>make_fig2&#45;&gt;figures</title>
<path fill="none" stroke="#000000" d="M1555.4677,-327.3017C1567.8708,-323.6322 1580.3689,-318.951 1591.5013,-313 1603.5681,-306.5494 1615.1533,-297.1153 1624.8109,-287.988"/>
<polygon fill="#000000" stroke="#000000" points="1627.4447,-290.3066 1632.1152,-280.7967 1622.5337,-285.3183 1627.4447,-290.3066"/>
</g>
<!-- make_fig3&#45;&gt;figures -->
<g id="edge24" class="edge">
<title>make_fig3&#45;&gt;figures</title>
<path fill="none" stroke="#000000" d="M1557.8775,-244.2812C1575.624,-247.2946 1594.0059,-250.4158 1609.6668,-253.0751"/>
<polygon fill="#000000" stroke="#000000" points="1609.0866,-256.5266 1619.5314,-254.7501 1610.2585,-249.6254 1609.0866,-256.5266"/>
</g>
<!-- render -->
<g id="node14" class="node">
<title>render</title>
<ellipse fill="none" stroke="#0000ff" cx="2186.6966" cy="-256" rx="98.4854" ry="18"/>
<text text-anchor="middle" x="2186.6966" y="-251.8" font-family="Helvetica,sans-Serif" font-size="14.00" fill="#000000">manuscript/render.R</text>
</g>
<!-- final -->
<g id="node33" class="node">
<title>final</title>
<polygon fill="none" stroke="#000000" points="2240.492,-220 2132.9012,-220 2132.9012,-184 2240.492,-184 2240.492,-220"/>
<text text-anchor="middle" x="2186.6966" y="-197.8" font-family="Helvetica,sans-Serif" font-size="14.00" fill="#000000">manuscript.pdf</text>
</g>
<!-- render&#45;&gt;final -->
<g id="edge38" class="edge">
<title>render&#45;&gt;final</title>
<path fill="none" stroke="#000000" d="M2186.6966,-237.7902C2186.6966,-235.3082 2186.6966,-232.8262 2186.6966,-230.3443"/>
<polygon fill="#000000" stroke="#000000" points="2190.1967,-230.1406 2186.6966,-220.1406 2183.1967,-230.1407 2190.1967,-230.1406"/>
</g>
<!-- raw_data -->
<g id="node15" class="node">
<title>raw_data</title>
<polygon fill="none" stroke="#c0c0c0" points="137.4474,-455.6019 31.5085,-455.6019 31.5085,-414.3981 137.4474,-414.3981 137.4474,-455.6019"/>
<text text-anchor="middle" x="84.4779" y="-439.2" font-family="Helvetica,sans-Serif" font-size="14.00" fill="#000000">data/raw&#45;data/</text>
<text text-anchor="middle" x="84.4779" y="-422.4" font-family="Helvetica,sans-Serif" font-size="14.00" fill="#000000">(.csv, .tiff)</text>
</g>
<!-- raw_data&#45;&gt;data_processing -->
<g id="edge4" class="edge">
<title>raw_data&#45;&gt;data_processing</title>
<path fill="none" stroke="#000000" d="M84.4779,-414.2377C84.4779,-411.7411 84.4779,-409.2446 84.4779,-406.748"/>
<polygon fill="#000000" stroke="#000000" points="87.978,-406.4843 84.4779,-396.4844 80.978,-406.4844 87.978,-406.4843"/>
</g>
<!-- derived_data&#45;&gt;import_derived_data -->
<g id="edge6" class="edge">
<title>derived_data&#45;&gt;import_derived_data</title>
<path fill="none" stroke="#000000" d="M148.8826,-299C163.2752,-299 178.9189,-299 194.5284,-299"/>
<polygon fill="#000000" stroke="#000000" points="194.7676,-302.5001 204.7675,-299 194.7675,-295.5001 194.7676,-302.5001"/>
</g>
<!-- figures_and_tables -->
<g id="node29" class="node">
<title>figures_and_tables</title>
<polygon fill="none" stroke="#c0c0c0" points="1917.6612,-166 1733.0454,-166 1733.0454,-130 1917.6612,-130 1917.6612,-166"/>
<text text-anchor="middle" x="1825.3533" y="-143.8" font-family="Helvetica,sans-Serif" font-size="14.00" fill="#000000">05_figures&#45;and&#45;tables.Rmd</text>
</g>
<!-- figures&#45;&gt;figures_and_tables -->
<g id="edge27" class="edge">
<title>figures&#45;&gt;figures_and_tables</title>
<path fill="none" stroke="#000000" d="M1657.4236,-239.1374C1665.0836,-219.5158 1679.3153,-190.8531 1701.3975,-175 1708.213,-170.107 1715.7449,-166.0724 1723.629,-162.749"/>
<polygon fill="#000000" stroke="#000000" points="1724.9282,-165.9995 1733.0243,-159.1655 1722.4335,-159.4591 1724.9282,-165.9995"/>
</g>
<!-- out_rough&#45;&gt;figure_setup -->
<g id="edge15" class="edge">
<title>out_rough&#45;&gt;figure_setup</title>
<path fill="none" stroke="#000000" d="M1092.5499,-310.4204C1115.2335,-306.8632 1139.1694,-303.1095 1161.2889,-299.6407"/>
<polygon fill="#000000" stroke="#000000" points="1161.976,-303.0758 1171.313,-298.0687 1160.8915,-296.1603 1161.976,-303.0758"/>
</g>
<!-- out_tdist&#45;&gt;figure_setup -->
<g id="edge16" class="edge">
<title>out_tdist&#45;&gt;figure_setup</title>
<path fill="none" stroke="#000000" d="M1087.8287,-361.997C1097.7611,-359.3243 1107.6262,-356.3304 1116.9435,-353 1149.7866,-341.2604 1184.8749,-323.0353 1210.5128,-308.5553"/>
<polygon fill="#000000" stroke="#000000" points="1212.5669,-311.4125 1219.5091,-303.4089 1209.0911,-305.3364 1212.5669,-311.4125"/>
</g>
<!-- out_trich&#45;&gt;figure_setup -->
<g id="edge17" class="edge">
<title>out_trich&#45;&gt;figure_setup</title>
<path fill="none" stroke="#000000" d="M1080.6417,-236.0746C1092.8735,-238.8952 1105.2526,-241.906 1116.9435,-245 1141.3904,-251.4699 1168.0789,-259.601 1190.9734,-266.9127"/>
<polygon fill="#000000" stroke="#000000" points="1189.944,-270.2581 1200.5354,-269.9888 1192.0878,-263.5944 1189.944,-270.2581"/>
</g>
<!-- out_rrich&#45;&gt;figure_setup -->
<g id="edge18" class="edge">
<title>out_rrich&#45;&gt;figure_setup</title>
<path fill="none" stroke="#000000" d="M1087.4569,-277.1733C1104.421,-278.1044 1122.2298,-279.0819 1139.5641,-280.0333"/>
<polygon fill="#000000" stroke="#000000" points="1139.5287,-283.5366 1149.7055,-280.59 1139.9124,-276.5471 1139.5287,-283.5366"/>
</g>
<!-- out_extra -->
<g id="node22" class="node">
<title>out_extra</title>
<polygon fill="none" stroke="#c0c0c0" points="1041.6224,-182 944.7851,-182 944.7851,-146 1041.6224,-146 1041.6224,-182"/>
<text text-anchor="middle" x="993.2037" y="-159.8" font-family="Helvetica,sans-Serif" font-size="14.00" fill="#000000">extra outputs</text>
</g>
<!-- results -->
<g id="node27" class="node">
<title>results</title>
<polygon fill="none" stroke="#c0c0c0" points="1882.3645,-274 1768.3421,-274 1768.3421,-238 1882.3645,-238 1882.3645,-274"/>
<text text-anchor="middle" x="1825.3533" y="-251.8" font-family="Helvetica,sans-Serif" font-size="14.00" fill="#000000">03_results.Rmd</text>
</g>
<!-- out_extra&#45;&gt;results -->
<g id="edge25" class="edge">
<title>out_extra&#45;&gt;results</title>
<path fill="none" stroke="#000000" d="M1042.0909,-166.8677C1180.1111,-174.9955 1564.528,-197.8635 1591.5013,-202 1641.2154,-209.624 1652.4003,-217.6469 1701.3975,-229 1719.8578,-233.2774 1739.9107,-237.7294 1758.4007,-241.7555"/>
<polygon fill="#000000" stroke="#000000" points="1757.6853,-245.1817 1768.2001,-243.8815 1759.1695,-238.3408 1757.6853,-245.1817"/>
</g>
<!-- out_extra&#45;&gt;figures_and_tables -->
<g id="edge26" class="edge">
<title>out_extra&#45;&gt;figures_and_tables</title>
<path fill="none" stroke="#000000" d="M1041.8457,-163.0647C1174.0549,-160.5227 1542.1496,-153.4452 1722.7563,-149.9727"/>
<polygon fill="#000000" stroke="#000000" points="1722.8649,-153.4713 1732.7958,-149.7796 1722.7303,-146.4726 1722.8649,-153.4713"/>
</g>
<!-- metafiles -->
<g id="node23" class="node">
<title>metafiles</title>
<polygon fill="none" stroke="#c0c0c0" points="1880.4543,-57.6019 1770.2522,-57.6019 1770.2522,-16.3981 1880.4543,-16.3981 1880.4543,-57.6019"/>
<text text-anchor="middle" x="1825.3533" y="-41.2" font-family="Helvetica,sans-Serif" font-size="14.00" fill="#000000">manuscript/</text>
<text text-anchor="middle" x="1825.3533" y="-24.4" font-family="Helvetica,sans-Serif" font-size="14.00" fill="#000000">(.yml, .bib, .csl)</text>
</g>
<!-- index -->
<g id="node24" class="node">
<title>index</title>
<polygon fill="none" stroke="#c0c0c0" points="2052.1513,-274 1969.3616,-274 1969.3616,-238 2052.1513,-238 2052.1513,-274"/>
<text text-anchor="middle" x="2010.7565" y="-251.8" font-family="Helvetica,sans-Serif" font-size="14.00" fill="#000000">index.Rmd</text>
</g>
<!-- metafiles&#45;&gt;index -->
<g id="edge28" class="edge">
<title>metafiles&#45;&gt;index</title>
<path fill="none" stroke="#000000" d="M1880.666,-38.8663C1901.803,-42.1865 1924.7732,-49.313 1941.3091,-64 1989.46,-106.7672 2004.2444,-185.537 2008.7703,-227.666"/>
<polygon fill="#000000" stroke="#000000" points="2005.3018,-228.1639 2009.7343,-237.7869 2012.2703,-227.5001 2005.3018,-228.1639"/>
</g>
<!-- index&#45;&gt;render -->
<g id="edge37" class="edge">
<title>index&#45;&gt;render</title>
<path fill="none" stroke="#000000" d="M2052.4518,-256C2060.3517,-256 2068.9477,-256 2077.8461,-256"/>
<polygon fill="#000000" stroke="#000000" points="2078.0004,-259.5001 2088.0004,-256 2078.0003,-252.5001 2078.0004,-259.5001"/>
</g>
<!-- intro -->
<g id="node25" class="node">
<title>intro</title>
<polygon fill="none" stroke="#c0c0c0" points="1897.9921,-382 1752.7144,-382 1752.7144,-346 1897.9921,-346 1897.9921,-382"/>
<text text-anchor="middle" x="1825.3533" y="-359.8" font-family="Helvetica,sans-Serif" font-size="14.00" fill="#000000">01_introduction.Rmd</text>
</g>
<!-- intro&#45;&gt;index -->
<g id="edge29" class="edge">
<title>intro&#45;&gt;index</title>
<path fill="none" stroke="#000000" d="M1898.0158,-354.4954C1913.027,-350.5383 1928.2326,-344.9348 1941.3091,-337 1963.492,-323.5394 1982.1918,-300.5577 1994.5785,-282.5045"/>
<polygon fill="#000000" stroke="#000000" points="1997.5396,-284.3721 2000.1398,-274.1013 1991.7022,-280.5089 1997.5396,-284.3721"/>
</g>
<!-- methods -->
<g id="node26" class="node">
<title>methods</title>
<polygon fill="none" stroke="#c0c0c0" points="1933.2649,-328 1717.4417,-328 1717.4417,-292 1933.2649,-292 1933.2649,-328"/>
<text text-anchor="middle" x="1825.3533" y="-305.8" font-family="Helvetica,sans-Serif" font-size="14.00" fill="#000000">02_materials&#45;and&#45;methods.Rmd</text>
</g>
<!-- methods&#45;&gt;index -->
<g id="edge30" class="edge">
<title>methods&#45;&gt;index</title>
<path fill="none" stroke="#000000" d="M1909.3372,-291.9363C1920.1587,-289.1728 1931.0402,-286.1741 1941.3091,-283 1947.3109,-281.1448 1953.5348,-279.0219 1959.6804,-276.7995"/>
<polygon fill="#000000" stroke="#000000" points="1961.0765,-280.0147 1969.2304,-273.2497 1958.6375,-273.4533 1961.0765,-280.0147"/>
</g>
<!-- results&#45;&gt;index -->
<g id="edge31" class="edge">
<title>results&#45;&gt;index</title>
<path fill="none" stroke="#000000" d="M1882.4932,-256C1906.8688,-256 1935.1108,-256 1958.8788,-256"/>
<polygon fill="#000000" stroke="#000000" points="1959.1096,-259.5001 1969.1096,-256 1959.1095,-252.5001 1959.1096,-259.5001"/>
</g>
<!-- discussion -->
<g id="node28" class="node">
<title>discussion</title>
<polygon fill="none" stroke="#c0c0c0" points="1894.4851,-220 1756.2214,-220 1756.2214,-184 1894.4851,-184 1894.4851,-220"/>
<text text-anchor="middle" x="1825.3533" y="-197.8" font-family="Helvetica,sans-Serif" font-size="14.00" fill="#000000">04_discussion.Rmd</text>
</g>
<!-- discussion&#45;&gt;index -->
<g id="edge32" class="edge">
<title>discussion&#45;&gt;index</title>
<path fill="none" stroke="#000000" d="M1894.4581,-216.3935C1909.9838,-220.0966 1926.3007,-224.3609 1941.3091,-229 1947.3109,-230.8552 1953.5348,-232.9781 1959.6804,-235.2005"/>
<polygon fill="#000000" stroke="#000000" points="1958.6375,-238.5467 1969.2304,-238.7503 1961.0765,-231.9853 1958.6375,-238.5467"/>
</g>
<!-- figures_and_tables&#45;&gt;index -->
<g id="edge33" class="edge">
<title>figures_and_tables&#45;&gt;index</title>
<path fill="none" stroke="#000000" d="M1917.7097,-163.7291C1925.9726,-166.8334 1933.9756,-170.5501 1941.3091,-175 1963.492,-188.4606 1982.1918,-211.4423 1994.5785,-229.4955"/>
<polygon fill="#000000" stroke="#000000" points="1991.7022,-231.4911 2000.1398,-237.8987 1997.5396,-227.6279 1991.7022,-231.4911"/>
</g>
<!-- appendix -->
<g id="node30" class="node">
<title>appendix</title>
<polygon fill="none" stroke="#c0c0c0" points="1889.9443,-112 1760.7622,-112 1760.7622,-76 1889.9443,-76 1889.9443,-112"/>
<text text-anchor="middle" x="1825.3533" y="-89.8" font-family="Helvetica,sans-Serif" font-size="14.00" fill="#000000">06_appendix.Rmd</text>
</g>
<!-- appendix&#45;&gt;index -->
<g id="edge34" class="edge">
<title>appendix&#45;&gt;index</title>
<path fill="none" stroke="#000000" d="M1890.1864,-98.9723C1908.1589,-102.9038 1926.7199,-109.6252 1941.3091,-121 1975.8572,-147.9363 1994.8187,-196.8031 2003.8697,-227.7685"/>
<polygon fill="#000000" stroke="#000000" points="2000.5291,-228.8203 2006.5675,-237.526 2007.276,-226.9549 2000.5291,-228.8203"/>
</g>
<!-- bios -->
<g id="node31" class="node">
<title>bios</title>
<polygon fill="none" stroke="#c0c0c0" points="1898.552,-490 1752.1546,-490 1752.1546,-454 1898.552,-454 1898.552,-490"/>
<text text-anchor="middle" x="1825.3533" y="-467.8" font-family="Helvetica,sans-Serif" font-size="14.00" fill="#000000">07_biosketches.Rmd</text>
</g>
<!-- bios&#45;&gt;index -->
<g id="edge35" class="edge">
<title>bios&#45;&gt;index</title>
<path fill="none" stroke="#000000" d="M1898.6557,-466.3163C1914.1403,-462.1808 1929.3827,-455.539 1941.3091,-445 1988.7816,-403.0501 2003.8442,-325.7792 2008.5933,-284.2179"/>
<polygon fill="#000000" stroke="#000000" points="2012.0799,-284.5267 2009.6136,-274.2229 2005.116,-283.8157 2012.0799,-284.5267"/>
</g>
<!-- refs -->
<g id="node32" class="node">
<title>refs</title>
<polygon fill="none" stroke="#c0c0c0" points="1894.7663,-436 1755.9402,-436 1755.9402,-400 1894.7663,-400 1894.7663,-436"/>
<text text-anchor="middle" x="1825.3533" y="-413.8" font-family="Helvetica,sans-Serif" font-size="14.00" fill="#000000">08_references.Rmd</text>
</g>
<!-- refs&#45;&gt;index -->
<g id="edge36" class="edge">
<title>refs&#45;&gt;index</title>
<path fill="none" stroke="#000000" d="M1895.0167,-411.9053C1911.4453,-407.8574 1928.024,-401.358 1941.3091,-391 1975.8572,-364.0637 1994.8187,-315.1969 2003.8697,-284.2315"/>
<polygon fill="#000000" stroke="#000000" points="2007.276,-285.0451 2006.5675,-274.474 2000.5291,-283.1797 2007.276,-285.0451"/>
</g>
</g>
</svg>

