<svg version="1.1" viewBox="0.0 0.0 960.0 720.0" fill="none" stroke="none" stroke-linecap="square" stroke-miterlimit="10" xmlns:xlink="http://www.w3.org/1999/xlink" xmlns="http://www.w3.org/2000/svg"><clipPath id="p.0"><path d="m0 0l960.0 0l0 720.0l-960.0 0l0 -720.0z" clip-rule="nonzero"/></clipPath><g clip-path="url(#p.0)"><path fill="#000000" fill-opacity="0.0" d="m0 0l960.0 0l0 720.0l-960.0 0z" fill-rule="evenodd"/><path fill="#000000" fill-opacity="0.0" d="m269.65353 106.87139l371.59055 0l0 354.89764l-371.59055 0z" fill-rule="evenodd"/><path stroke="#000000" stroke-width="3.0" stroke-linejoin="round" stroke-linecap="butt" d="m269.65353 106.87139l371.59055 0l0 354.89764l-371.59055 0z" fill-rule="evenodd"/><path fill="#000000" fill-opacity="0.0" d="m295.59842 144.89502l0 0c0 -5.30542 4.3009033 -9.606308 9.606293 -9.606308l0 0c2.54776 0 4.99115 1.012085 6.792694 2.8136292c1.8015137 1.8015289 2.8136292 4.244919 2.8136292 6.792679l0 0c0 5.3054047 -4.3009033 9.606293 -9.606323 9.606293l0 0c-5.3053894 0 -9.606293 -4.300888 -9.606293 -9.606293z" fill-rule="evenodd"/><path stroke="#6aa84f" stroke-width="3.0" stroke-linejoin="round" stroke-linecap="butt" d="m295.59842 144.89502l0 0c0 -5.30542 4.3009033 -9.606308 9.606293 -9.606308l0 0c2.54776 0 4.99115 1.012085 6.792694 2.8136292c1.8015137 1.8015289 2.8136292 4.244919 2.8136292 6.792679l0 0c0 5.3054047 -4.3009033 9.606293 -9.606323 9.606293l0 0c-5.3053894 0 -9.606293 -4.300888 -9.606293 -9.606293z" fill-rule="evenodd"/><path fill="#000000" fill-opacity="0.0" d="m311.59842 160.89502l0 0c0 -5.30542 4.3009033 -9.606308 9.606293 -9.606308l0 0c2.54776 0 4.99115 1.012085 6.792694 2.8136292c1.8015137 1.8015289 2.8136292 4.244919 2.8136292 6.792679l0 0c0 5.3054047 -4.3009033 9.606293 -9.606323 9.606293l0 0c-5.3053894 0 -9.606293 -4.300888 -9.606293 -9.606293z" fill-rule="evenodd"/><path stroke="#6aa84f" stroke-width="3.0" stroke-linejoin="round" stroke-linecap="butt" d="m311.59842 160.89502l0 0c0 -5.30542 4.3009033 -9.606308 9.606293 -9.606308l0 0c2.54776 0 4.99115 1.012085 6.792694 2.8136292c1.8015137 1.8015289 2.8136292 4.244919 2.8136292 6.792679l0 0c0 5.3054047 -4.3009033 9.606293 -9.606323 9.606293l0 0c-5.3053894 0 -9.606293 -4.300888 -9.606293 -9.606293z" fill-rule="evenodd"/><path fill="#000000" fill-opacity="0.0" d="m314.81104 199.3202l0 0c0 -5.3054047 4.300873 -9.606293 9.606293 -9.606293l0 0c2.5477295 0 4.99115 1.012085 6.7926636 2.813614c1.8015442 1.8015289 2.8136292 4.244934 2.8136292 6.792679l0 0c0 5.30542 -4.300873 9.606308 -9.606293 9.606308l0 0c-5.30542 0 -9.606293 -4.300888 -9.606293 -9.606308z" fill-rule="evenodd"/><path stroke="#6aa84f" stroke-width="3.0" stroke-linejoin="round" stroke-linecap="butt" d="m314.81104 199.3202l0 0c0 -5.3054047 4.300873 -9.606293 9.606293 -9.606293l0 0c2.5477295 0 4.99115 1.012085 6.7926636 2.813614c1.8015442 1.8015289 2.8136292 4.244934 2.8136292 6.792679l0 0c0 5.30542 -4.300873 9.606308 -9.606293 9.606308l0 0c-5.30542 0 -9.606293 -4.300888 -9.606293 -9.606308z" fill-rule="evenodd"/><path fill="#000000" fill-opacity="0.0" d="m343.59842 192.89502l0 0c0 -5.30542 4.3009033 -9.606308 9.606293 -9.606308l0 0c2.54776 0 4.99115 1.012085 6.792694 2.8136292c1.8015137 1.8015289 2.8136292 4.244919 2.8136292 6.792679l0 0c0 5.3054047 -4.3009033 9.606293 -9.606323 9.606293l0 0c-5.3053894 0 -9.606293 -4.300888 -9.606293 -9.606293z" fill-rule="evenodd"/><path stroke="#6aa84f" stroke-width="3.0" stroke-linejoin="round" stroke-linecap="butt" d="m343.59842 192.89502l0 0c0 -5.30542 4.3009033 -9.606308 9.606293 -9.606308l0 0c2.54776 0 4.99115 1.012085 6.792694 2.8136292c1.8015137 1.8015289 2.8136292 4.244919 2.8136292 6.792679l0 0c0 5.3054047 -4.3009033 9.606293 -9.606323 9.606293l0 0c-5.3053894 0 -9.606293 -4.300888 -9.606293 -9.606293z" fill-rule="evenodd"/><path fill="#000000" fill-opacity="0.0" d="m306.71915 240.89502l0 0c0 -5.30542 4.3009033 -9.606308 9.606323 -9.606308l0 0c2.5477295 0 4.99115 1.012085 6.7926636 2.8136292c1.8015442 1.8015289 2.8136292 4.244919 2.8136292 6.792679l0 0c0 5.3054047 -4.3009033 9.606293 -9.606293 9.606293l0 0c-5.30542 0 -9.606323 -4.300888 -9.606323 -9.606293z" fill-rule="evenodd"/><path stroke="#6aa84f" stroke-width="3.0" stroke-linejoin="round" stroke-linecap="butt" d="m306.71915 240.89502l0 0c0 -5.30542 4.3009033 -9.606308 9.606323 -9.606308l0 0c2.5477295 0 4.99115 1.012085 6.7926636 2.8136292c1.8015442 1.8015289 2.8136292 4.244919 2.8136292 6.792679l0 0c0 5.3054047 -4.3009033 9.606293 -9.606293 9.606293l0 0c-5.30542 0 -9.606323 -4.300888 -9.606323 -9.606293z" fill-rule="evenodd"/><path fill="#000000" fill-opacity="0.0" d="m375.59842 224.89502l0 0c0 -5.30542 4.3009033 -9.606308 9.606293 -9.606308l0 0c2.54776 0 4.99115 1.012085 6.792694 2.8136292c1.8015137 1.8015289 2.8136292 4.244919 2.8136292 6.792679l0 0c0 5.3054047 -4.3009033 9.606293 -9.606323 9.606293l0 0c-5.3053894 0 -9.606293 -4.300888 -9.606293 -9.606293z" fill-rule="evenodd"/><path stroke="#6aa84f" stroke-width="3.0" stroke-linejoin="round" stroke-linecap="butt" d="m375.59842 224.89502l0 0c0 -5.30542 4.3009033 -9.606308 9.606293 -9.606308l0 0c2.54776 0 4.99115 1.012085 6.792694 2.8136292c1.8015137 1.8015289 2.8136292 4.244919 2.8136292 6.792679l0 0c0 5.3054047 -4.3009033 9.606293 -9.606323 9.606293l0 0c-5.3053894 0 -9.606293 -4.300888 -9.606293 -9.606293z" fill-rule="evenodd"/><path fill="#000000" fill-opacity="0.0" d="m407.59842 199.3202l0 0c0 -5.3054047 4.3009033 -9.606293 9.606293 -9.606293l0 0c2.54776 0 4.99115 1.012085 6.792694 2.813614c1.8015137 1.8015289 2.8136292 4.244934 2.8136292 6.792679l0 0c0 5.30542 -4.3009033 9.606308 -9.606323 9.606308l0 0c-5.3053894 0 -9.606293 -4.300888 -9.606293 -9.606308z" fill-rule="evenodd"/><path stroke="#6aa84f" stroke-width="3.0" stroke-linejoin="round" stroke-linecap="butt" d="m407.59842 199.3202l0 0c0 -5.3054047 4.3009033 -9.606293 9.606293 -9.606293l0 0c2.54776 0 4.99115 1.012085 6.792694 2.813614c1.8015137 1.8015289 2.8136292 4.244934 2.8136292 6.792679l0 0c0 5.30542 -4.3009033 9.606308 -9.606323 9.606308l0 0c-5.3053894 0 -9.606293 -4.300888 -9.606293 -9.606308z" fill-rule="evenodd"/><path fill="#000000" fill-opacity="0.0" d="m412.91077 231.87401l0 0c0 -5.3054047 4.300873 -9.606293 9.606293 -9.606293l0 0c2.54776 0 4.99115 1.012085 6.792694 2.813614c1.8015137 1.8015442 2.8135986 4.244934 2.8135986 6.792679l0 0c0 5.30542 -4.300873 9.606308 -9.606293 9.606308l0 0c-5.30542 0 -9.606293 -4.300888 -9.606293 -9.606308z" fill-rule="evenodd"/><path stroke="#6aa84f" stroke-width="3.0" stroke-linejoin="round" stroke-linecap="butt" d="m412.91077 231.87401l0 0c0 -5.3054047 4.300873 -9.606293 9.606293 -9.606293l0 0c2.54776 0 4.99115 1.012085 6.792694 2.813614c1.8015137 1.8015442 2.8135986 4.244934 2.8135986 6.792679l0 0c0 5.30542 -4.300873 9.606308 -9.606293 9.606308l0 0c-5.30542 0 -9.606293 -4.300888 -9.606293 -9.606308z" fill-rule="evenodd"/><path fill="#000000" fill-opacity="0.0" d="m432.12335 251.08661l0 0c0 -5.3054047 4.3009033 -9.606293 9.606293 -9.606293l0 0c2.54776 0 4.99115 1.012085 6.792694 2.813614c1.8015442 1.8015289 2.8136292 4.244934 2.8136292 6.792679l0 0c0 5.30542 -4.3009033 9.606293 -9.606323 9.606293l0 0c-5.3053894 0 -9.606293 -4.300873 -9.606293 -9.606293z" fill-rule="evenodd"/><path stroke="#6aa84f" stroke-width="3.0" stroke-linejoin="round" stroke-linecap="butt" d="m432.12335 251.08661l0 0c0 -5.3054047 4.3009033 -9.606293 9.606293 -9.606293l0 0c2.54776 0 4.99115 1.012085 6.792694 2.813614c1.8015442 1.8015289 2.8136292 4.244934 2.8136292 6.792679l0 0c0 5.30542 -4.3009033 9.606293 -9.606323 9.606293l0 0c-5.3053894 0 -9.606293 -4.300873 -9.606293 -9.606293z" fill-rule="evenodd"/><path fill="#000000" fill-opacity="0.0" d="m314.81104 304.89502l0 0c0 -5.30542 4.300873 -9.606293 9.606293 -9.606293l0 0c2.5477295 0 4.99115 1.012085 6.7926636 2.8135986c1.8015442 1.8015442 2.8136292 4.244934 2.8136292 6.792694l0 0c0 5.30542 -4.300873 9.606293 -9.606293 9.606293l0 0c-5.30542 0 -9.606293 -4.300873 -9.606293 -9.606293z" fill-rule="evenodd"/><path stroke="#6aa84f" stroke-width="3.0" stroke-linejoin="round" stroke-linecap="butt" d="m314.81104 304.89502l0 0c0 -5.30542 4.300873 -9.606293 9.606293 -9.606293l0 0c2.5477295 0 4.99115 1.012085 6.7926636 2.8135986c1.8015442 1.8015442 2.8136292 4.244934 2.8136292 6.792694l0 0c0 5.30542 -4.300873 9.606293 -9.606293 9.606293l0 0c-5.30542 0 -9.606293 -4.300873 -9.606293 -9.606293z" fill-rule="evenodd"/><path fill="#000000" fill-opacity="0.0" d="m394.81104 276.1076l0 0c0 -5.30542 4.300873 -9.606293 9.606293 -9.606293l0 0c2.5477295 0 4.99115 1.012085 6.7926636 2.8136292c1.8015442 1.8015137 2.8136292 4.244934 2.8136292 6.7926636l0 0c0 5.30542 -4.300873 9.606293 -9.606293 9.606293l0 0c-5.30542 0 -9.606293 -4.300873 -9.606293 -9.606293z" fill-rule="evenodd"/><path stroke="#6aa84f" stroke-width="3.0" stroke-linejoin="round" stroke-linecap="butt" d="m394.81104 276.1076l0 0c0 -5.30542 4.300873 -9.606293 9.606293 -9.606293l0 0c2.5477295 0 4.99115 1.012085 6.7926636 2.8136292c1.8015442 1.8015137 2.8136292 4.244934 2.8136292 6.7926636l0 0c0 5.30542 -4.300873 9.606293 -9.606293 9.606293l0 0c-5.30542 0 -9.606293 -4.300873 -9.606293 -9.606293z" fill-rule="evenodd"/><path fill="#000000" fill-opacity="0.0" d="m451.33597 205.68242l0 0c0 -5.30542 4.300873 -9.606308 9.606293 -9.606308l0 0c2.54776 0 4.99115 1.0121002 6.7926636 2.8136292c1.8015442 1.8015289 2.8136292 4.244919 2.8136292 6.792679l0 0c0 5.3054047 -4.300873 9.606293 -9.606293 9.606293l0 0c-5.30542 0 -9.606293 -4.300888 -9.606293 -9.606293z" fill-rule="evenodd"/><path stroke="#6aa84f" stroke-width="3.0" stroke-linejoin="round" stroke-linecap="butt" d="m451.33597 205.68242l0 0c0 -5.30542 4.300873 -9.606308 9.606293 -9.606308l0 0c2.54776 0 4.99115 1.0121002 6.7926636 2.8136292c1.8015442 1.8015289 2.8136292 4.244919 2.8136292 6.792679l0 0c0 5.3054047 -4.300873 9.606293 -9.606293 9.606293l0 0c-5.30542 0 -9.606293 -4.300888 -9.606293 -9.606293z" fill-rule="evenodd"/><path fill="#000000" fill-opacity="0.0" d="m295.59842 144.89502l0 0c0 -5.30542 4.3009033 -9.606308 9.606293 -9.606308l0 0c2.54776 0 4.99115 1.012085 6.792694 2.8136292c1.8015137 1.8015289 2.8136292 4.244919 2.8136292 6.792679l0 0c0 5.3054047 -4.3009033 9.606293 -9.606323 9.606293l0 0c-5.3053894 0 -9.606293 -4.300888 -9.606293 -9.606293z" fill-rule="evenodd"/><path stroke="#6aa84f" stroke-width="3.0" stroke-linejoin="round" stroke-linecap="butt" d="m295.59842 144.89502l0 0c0 -5.30542 4.3009033 -9.606308 9.606293 -9.606308l0 0c2.54776 0 4.99115 1.012085 6.792694 2.8136292c1.8015137 1.8015289 2.8136292 4.244919 2.8136292 6.792679l0 0c0 5.3054047 -4.3009033 9.606293 -9.606323 9.606293l0 0c-5.3053894 0 -9.606293 -4.300888 -9.606293 -9.606293z" fill-rule="evenodd"/><path fill="#000000" fill-opacity="0.0" d="m287.50656 180.1076l0 0c0 -5.3054047 4.300873 -9.606293 9.606293 -9.606293l0 0c2.54776 0 4.99115 1.012085 6.792694 2.813614c1.8015137 1.8015442 2.8135986 4.244934 2.8135986 6.792679l0 0c0 5.30542 -4.300873 9.606308 -9.606293 9.606308l0 0c-5.30542 0 -9.606293 -4.300888 -9.606293 -9.606308z" fill-rule="evenodd"/><path stroke="#6aa84f" stroke-width="3.0" stroke-linejoin="round" stroke-linecap="butt" d="m287.50656 180.1076l0 0c0 -5.3054047 4.300873 -9.606293 9.606293 -9.606293l0 0c2.54776 0 4.99115 1.012085 6.792694 2.813614c1.8015137 1.8015442 2.8135986 4.244934 2.8135986 6.792679l0 0c0 5.30542 -4.300873 9.606308 -9.606293 9.606308l0 0c-5.30542 0 -9.606293 -4.300888 -9.606293 -9.606308z" fill-rule="evenodd"/><path fill="#000000" fill-opacity="0.0" d="m343.59842 157.68242l0 0c0 -5.30542 4.3009033 -9.606308 9.606293 -9.606308l0 0c2.54776 0 4.99115 1.0121002 6.792694 2.8136292c1.8015137 1.8015289 2.8136292 4.244919 2.8136292 6.792679l0 0c0 5.3054047 -4.3009033 9.606293 -9.606323 9.606293l0 0c-5.3053894 0 -9.606293 -4.300888 -9.606293 -9.606293z" fill-rule="evenodd"/><path stroke="#6aa84f" stroke-width="3.0" stroke-linejoin="round" stroke-linecap="butt" d="m343.59842 157.68242l0 0c0 -5.30542 4.3009033 -9.606308 9.606293 -9.606308l0 0c2.54776 0 4.99115 1.0121002 6.792694 2.8136292c1.8015137 1.8015289 2.8136292 4.244919 2.8136292 6.792679l0 0c0 5.3054047 -4.3009033 9.606293 -9.606323 9.606293l0 0c-5.3053894 0 -9.606293 -4.300888 -9.606293 -9.606293z" fill-rule="evenodd"/><path fill="#000000" fill-opacity="0.0" d="m368.6168 173.68242l0 0c0 -5.30542 4.3009033 -9.606308 9.606293 -9.606308l0 0c2.54776 0 4.99115 1.0121002 6.792694 2.8136292c1.8015442 1.8015289 2.8136292 4.244919 2.8136292 6.792679l0 0c0 5.3054047 -4.3009033 9.606293 -9.606323 9.606293l0 0c-5.3053894 0 -9.606293 -4.300888 -9.606293 -9.606293z" fill-rule="evenodd"/><path stroke="#6aa84f" stroke-width="3.0" stroke-linejoin="round" stroke-linecap="butt" d="m368.6168 173.68242l0 0c0 -5.30542 4.3009033 -9.606308 9.606293 -9.606308l0 0c2.54776 0 4.99115 1.0121002 6.792694 2.8136292c1.8015442 1.8015289 2.8136292 4.244919 2.8136292 6.792679l0 0c0 5.3054047 -4.3009033 9.606293 -9.606323 9.606293l0 0c-5.3053894 0 -9.606293 -4.300888 -9.606293 -9.606293z" fill-rule="evenodd"/><path fill="#000000" fill-opacity="0.0" d="m343.59842 237.68242l0 0c0 -5.30542 4.3009033 -9.606308 9.606293 -9.606308l0 0c2.54776 0 4.99115 1.0121002 6.792694 2.8136292c1.8015137 1.8015289 2.8136292 4.244919 2.8136292 6.792679l0 0c0 5.3054047 -4.3009033 9.606293 -9.606323 9.606293l0 0c-5.3053894 0 -9.606293 -4.300888 -9.606293 -9.606293z" fill-rule="evenodd"/><path stroke="#6aa84f" stroke-width="3.0" stroke-linejoin="round" stroke-linecap="butt" d="m343.59842 237.68242l0 0c0 -5.30542 4.3009033 -9.606308 9.606293 -9.606308l0 0c2.54776 0 4.99115 1.0121002 6.792694 2.8136292c1.8015137 1.8015289 2.8136292 4.244919 2.8136292 6.792679l0 0c0 5.3054047 -4.3009033 9.606293 -9.606323 9.606293l0 0c-5.3053894 0 -9.606293 -4.300888 -9.606293 -9.606293z" fill-rule="evenodd"/><path fill="#000000" fill-opacity="0.0" d="m432.12335 173.68242l0 0c0 -5.30542 4.3009033 -9.606308 9.606293 -9.606308l0 0c2.54776 0 4.99115 1.0121002 6.792694 2.8136292c1.8015442 1.8015289 2.8136292 4.244919 2.8136292 6.792679l0 0c0 5.3054047 -4.3009033 9.606293 -9.606323 9.606293l0 0c-5.3053894 0 -9.606293 -4.300888 -9.606293 -9.606293z" fill-rule="evenodd"/><path stroke="#6aa84f" stroke-width="3.0" stroke-linejoin="round" stroke-linecap="butt" d="m432.12335 173.68242l0 0c0 -5.30542 4.3009033 -9.606308 9.606293 -9.606308l0 0c2.54776 0 4.99115 1.0121002 6.792694 2.8136292c1.8015442 1.8015289 2.8136292 4.244919 2.8136292 6.792679l0 0c0 5.3054047 -4.3009033 9.606293 -9.606323 9.606293l0 0c-5.3053894 0 -9.606293 -4.300888 -9.606293 -9.606293z" fill-rule="evenodd"/><path fill="#000000" fill-opacity="0.0" d="m356.38583 276.1076l0 0c0 -5.30542 4.300873 -9.606293 9.606293 -9.606293l0 0c2.54776 0 4.99115 1.012085 6.792694 2.8136292c1.8015137 1.8015137 2.8135986 4.244934 2.8135986 6.7926636l0 0c0 5.30542 -4.300873 9.606293 -9.606293 9.606293l0 0c-5.30542 0 -9.606293 -4.300873 -9.606293 -9.606293z" fill-rule="evenodd"/><path stroke="#6aa84f" stroke-width="3.0" stroke-linejoin="round" stroke-linecap="butt" d="m356.38583 276.1076l0 0c0 -5.30542 4.300873 -9.606293 9.606293 -9.606293l0 0c2.54776 0 4.99115 1.012085 6.792694 2.8136292c1.8015137 1.8015137 2.8135986 4.244934 2.8135986 6.7926636l0 0c0 5.30542 -4.300873 9.606293 -9.606293 9.606293l0 0c-5.30542 0 -9.606293 -4.300873 -9.606293 -9.606293z" fill-rule="evenodd"/><path fill="#000000" fill-opacity="0.0" d="m560.0 420.91077l0 0c0 -5.30542 4.3009033 -9.606293 9.606323 -9.606293l0 0c2.5477295 0 4.99115 1.012085 6.7926636 2.8135986c1.8015137 1.8015442 2.8135986 4.244934 2.8135986 6.792694l0 0c0 5.30542 -4.3009033 9.606293 -9.606262 9.606293l0 0c-5.30542 0 -9.606323 -4.300873 -9.606323 -9.606293z" fill-rule="evenodd"/><path stroke="#cc0000" stroke-width="3.0" stroke-linejoin="round" stroke-linecap="butt" d="m560.0 420.91077l0 0c0 -5.30542 4.3009033 -9.606293 9.606323 -9.606293l0 0c2.5477295 0 4.99115 1.012085 6.7926636 2.8135986c1.8015137 1.8015442 2.8135986 4.244934 2.8135986 6.792694l0 0c0 5.30542 -4.3009033 9.606293 -9.606262 9.606293l0 0c-5.30542 0 -9.606323 -4.300873 -9.606323 -9.606293z" fill-rule="evenodd"/><path fill="#000000" fill-opacity="0.0" d="m540.7874 397.0656l0 0c0 -5.30542 4.3009033 -9.606293 9.606262 -9.606293l0 0c2.5477905 0 4.99115 1.012085 6.7927246 2.8136292c1.8015137 1.8015137 2.8135986 4.2449036 2.8135986 6.7926636l0 0c0 5.30542 -4.3009033 9.606293 -9.606323 9.606293l0 0c-5.305359 0 -9.606262 -4.300873 -9.606262 -9.606293z" fill-rule="evenodd"/><path stroke="#cc0000" stroke-width="3.0" stroke-linejoin="round" stroke-linecap="butt" d="m540.7874 397.0656l0 0c0 -5.30542 4.3009033 -9.606293 9.606262 -9.606293l0 0c2.5477905 0 4.99115 1.012085 6.7927246 2.8136292c1.8015137 1.8015137 2.8135986 4.2449036 2.8135986 6.7926636l0 0c0 5.30542 -4.3009033 9.606293 -9.606323 9.606293l0 0c-5.305359 0 -9.606262 -4.300873 -9.606262 -9.606293z" fill-rule="evenodd"/><path fill="#000000" fill-opacity="0.0" d="m512.80316 377.85303l0 0c0 -5.30542 4.3009033 -9.606323 9.606262 -9.606323l0 0c2.5477905 0 4.99115 1.0121155 6.7927246 2.8136292c1.8015137 1.8015442 2.8135986 4.244934 2.8135986 6.792694l0 0c0 5.3053894 -4.3009033 9.606293 -9.606323 9.606293l0 0c-5.305359 0 -9.606262 -4.3009033 -9.606262 -9.606293z" fill-rule="evenodd"/><path stroke="#cc0000" stroke-width="3.0" stroke-linejoin="round" stroke-linecap="butt" d="m512.80316 377.85303l0 0c0 -5.30542 4.3009033 -9.606323 9.606262 -9.606323l0 0c2.5477905 0 4.99115 1.0121155 6.7927246 2.8136292c1.8015137 1.8015442 2.8135986 4.244934 2.8135986 6.792694l0 0c0 5.3053894 -4.3009033 9.606293 -9.606323 9.606293l0 0c-5.305359 0 -9.606262 -4.3009033 -9.606262 -9.606293z" fill-rule="evenodd"/><path fill="#000000" fill-opacity="0.0" d="m532.01575 420.91077l0 0c0 -5.30542 4.3009033 -9.606293 9.606323 -9.606293l0 0c2.5477295 0 4.99115 1.012085 6.7926636 2.8135986c1.8015137 1.8015442 2.8135986 4.244934 2.8135986 6.792694l0 0c0 5.30542 -4.3008423 9.606293 -9.606262 9.606293l0 0c-5.30542 0 -9.606323 -4.300873 -9.606323 -9.606293z" fill-rule="evenodd"/><path stroke="#cc0000" stroke-width="3.0" stroke-linejoin="round" stroke-linecap="butt" d="m532.01575 420.91077l0 0c0 -5.30542 4.3009033 -9.606293 9.606323 -9.606293l0 0c2.5477295 0 4.99115 1.012085 6.7926636 2.8135986c1.8015137 1.8015442 2.8135986 4.244934 2.8135986 6.792694l0 0c0 5.30542 -4.3008423 9.606293 -9.606262 9.606293l0 0c-5.30542 0 -9.606323 -4.300873 -9.606323 -9.606293z" fill-rule="evenodd"/><path fill="#000000" fill-opacity="0.0" d="m576.0 436.91077l0 0c0 -5.30542 4.3009033 -9.606293 9.606323 -9.606293l0 0c2.5477295 0 4.99115 1.012085 6.7926636 2.8135986c1.8015137 1.8015442 2.8135986 4.244934 2.8135986 6.792694l0 0c0 5.30542 -4.3009033 9.606293 -9.606262 9.606293l0 0c-5.30542 0 -9.606323 -4.300873 -9.606323 -9.606293z" fill-rule="evenodd"/><path stroke="#cc0000" stroke-width="3.0" stroke-linejoin="round" stroke-linecap="butt" d="m576.0 436.91077l0 0c0 -5.30542 4.3009033 -9.606293 9.606323 -9.606293l0 0c2.5477295 0 4.99115 1.012085 6.7926636 2.8135986c1.8015137 1.8015442 2.8135986 4.244934 2.8135986 6.792694l0 0c0 5.30542 -4.3009033 9.606293 -9.606262 9.606293l0 0c-5.30542 0 -9.606323 -4.300873 -9.606323 -9.606293z" fill-rule="evenodd"/><path fill="#000000" fill-opacity="0.0" d="m504.0315 412.1391l0 0c0 -5.3053894 4.3009033 -9.606293 9.606323 -9.606293l0 0c2.5477295 0 4.99115 1.012085 6.7926636 2.8136292c1.8015137 1.8015137 2.8135986 4.244934 2.8135986 6.7926636l0 0c0 5.30542 -4.3008423 9.606293 -9.606262 9.606293l0 0c-5.30542 0 -9.606323 -4.300873 -9.606323 -9.606293z" fill-rule="evenodd"/><path stroke="#cc0000" stroke-width="3.0" stroke-linejoin="round" stroke-linecap="butt" d="m504.0315 412.1391l0 0c0 -5.3053894 4.3009033 -9.606293 9.606323 -9.606293l0 0c2.5477295 0 4.99115 1.012085 6.7926636 2.8136292c1.8015137 1.8015137 2.8135986 4.244934 2.8135986 6.7926636l0 0c0 5.30542 -4.3008423 9.606293 -9.606262 9.606293l0 0c-5.30542 0 -9.606323 -4.300873 -9.606323 -9.606293z" fill-rule="evenodd"/><path fill="#000000" fill-opacity="0.0" d="m585.08136 324.1076l0 0c0 -5.30542 4.3009033 -9.606293 9.606323 -9.606293l0 0c2.5477295 0 4.99115 1.012085 6.7926636 2.8136292c1.8015137 1.8015137 2.8135986 4.244934 2.8135986 6.7926636l0 0c0 5.30542 -4.3008423 9.606293 -9.606262 9.606293l0 0c-5.30542 0 -9.606323 -4.300873 -9.606323 -9.606293z" fill-rule="evenodd"/><path stroke="#cc0000" stroke-width="3.0" stroke-linejoin="round" stroke-linecap="butt" d="m585.08136 324.1076l0 0c0 -5.30542 4.3009033 -9.606293 9.606323 -9.606293l0 0c2.5477295 0 4.99115 1.012085 6.7926636 2.8136292c1.8015137 1.8015137 2.8135986 4.244934 2.8135986 6.7926636l0 0c0 5.30542 -4.3008423 9.606293 -9.606262 9.606293l0 0c-5.30542 0 -9.606323 -4.300873 -9.606323 -9.606293z" fill-rule="evenodd"/><path fill="#000000" fill-opacity="0.0" d="m592.0 382.98163l0 0c0 -5.30542 4.3009033 -9.606293 9.606323 -9.606293l0 0c2.5477295 0 4.99115 1.012085 6.7926636 2.8135986c1.8015137 1.8015442 2.8135986 4.244934 2.8135986 6.792694l0 0c0 5.30542 -4.3009033 9.606293 -9.606262 9.606293l0 0c-5.30542 0 -9.606323 -4.300873 -9.606323 -9.606293z" fill-rule="evenodd"/><path stroke="#cc0000" stroke-width="3.0" stroke-linejoin="round" stroke-linecap="butt" d="m592.0 382.98163l0 0c0 -5.30542 4.3009033 -9.606293 9.606323 -9.606293l0 0c2.5477295 0 4.99115 1.012085 6.7926636 2.8135986c1.8015137 1.8015442 2.8135986 4.244934 2.8135986 6.792694l0 0c0 5.30542 -4.3009033 9.606293 -9.606262 9.606293l0 0c-5.30542 0 -9.606323 -4.300873 -9.606323 -9.606293z" fill-rule="evenodd"/><path fill="#000000" fill-opacity="0.0" d="m565.8688 341.52756l0 0c0 -5.30542 4.3009033 -9.606293 9.606262 -9.606293l0 0c2.5477905 0 4.99115 1.012085 6.7927246 2.8136292c1.8015137 1.8015137 2.8135986 4.2449036 2.8135986 6.7926636l0 0c0 5.30542 -4.3009033 9.606293 -9.606323 9.606293l0 0c-5.305359 0 -9.606262 -4.300873 -9.606262 -9.606293z" fill-rule="evenodd"/><path stroke="#cc0000" stroke-width="3.0" stroke-linejoin="round" stroke-linecap="butt" d="m565.8688 341.52756l0 0c0 -5.30542 4.3009033 -9.606293 9.606262 -9.606293l0 0c2.5477905 0 4.99115 1.012085 6.7927246 2.8136292c1.8015137 1.8015137 2.8135986 4.2449036 2.8135986 6.7926636l0 0c0 5.30542 -4.3009033 9.606293 -9.606323 9.606293l0 0c-5.305359 0 -9.606262 -4.300873 -9.606262 -9.606293z" fill-rule="evenodd"/><path fill="#000000" fill-opacity="0.0" d="m540.7874 295.13123l0 0c0 -5.3053894 4.3009033 -9.606293 9.606262 -9.606293l0 0c2.5477905 0 4.99115 1.012085 6.7927246 2.8136292c1.8015137 1.8015137 2.8135986 4.244934 2.8135986 6.7926636l0 0c0 5.30542 -4.3009033 9.606293 -9.606323 9.606293l0 0c-5.305359 0 -9.606262 -4.300873 -9.606262 -9.606293z" fill-rule="evenodd"/><path stroke="#cc0000" stroke-width="3.0" stroke-linejoin="round" stroke-linecap="butt" d="m540.7874 295.13123l0 0c0 -5.3053894 4.3009033 -9.606293 9.606262 -9.606293l0 0c2.5477905 0 4.99115 1.012085 6.7927246 2.8136292c1.8015137 1.8015137 2.8135986 4.244934 2.8135986 6.7926636l0 0c0 5.30542 -4.3009033 9.606293 -9.606323 9.606293l0 0c-5.305359 0 -9.606262 -4.300873 -9.606262 -9.606293z" fill-rule="evenodd"/><path fill="#000000" fill-opacity="0.0" d="m504.0315 329.97638l0 0c0 -5.30542 4.3009033 -9.606293 9.606323 -9.606293l0 0c2.5477295 0 4.99115 1.012085 6.7926636 2.8135986c1.8015137 1.8015442 2.8135986 4.244934 2.8135986 6.792694l0 0c0 5.30542 -4.3008423 9.606293 -9.606262 9.606293l0 0c-5.30542 0 -9.606323 -4.300873 -9.606323 -9.606293z" fill-rule="evenodd"/><path stroke="#cc0000" stroke-width="3.0" stroke-linejoin="round" stroke-linecap="butt" d="m504.0315 329.97638l0 0c0 -5.30542 4.3009033 -9.606293 9.606323 -9.606293l0 0c2.5477295 0 4.99115 1.012085 6.7926636 2.8135986c1.8015137 1.8015442 2.8135986 4.244934 2.8135986 6.792694l0 0c0 5.30542 -4.3008423 9.606293 -9.606262 9.606293l0 0c-5.30542 0 -9.606323 -4.300873 -9.606323 -9.606293z" fill-rule="evenodd"/><path fill="#000000" fill-opacity="0.0" d="m466.5328 363.76904l0 0c0 -5.30542 4.3009033 -9.606323 9.606293 -9.606323l0 0c2.54776 0 4.99115 1.012085 6.792694 2.8136292c1.8015137 1.8015442 2.8135986 4.244934 2.8135986 6.792694l0 0c0 5.3053894 -4.300873 9.606293 -9.606293 9.606293l0 0c-5.3053894 0 -9.606293 -4.3009033 -9.606293 -9.606293z" fill-rule="evenodd"/><path stroke="#cc0000" stroke-width="3.0" stroke-linejoin="round" stroke-linecap="butt" d="m466.5328 363.76904l0 0c0 -5.30542 4.3009033 -9.606323 9.606293 -9.606323l0 0c2.54776 0 4.99115 1.012085 6.792694 2.8136292c1.8015137 1.8015442 2.8135986 4.244934 2.8135986 6.792694l0 0c0 5.3053894 -4.300873 9.606293 -9.606293 9.606293l0 0c-5.3053894 0 -9.606293 -4.3009033 -9.606293 -9.606293z" fill-rule="evenodd"/><path fill="#000000" fill-opacity="0.0" d="m460.7874 420.91077l0 0c0 -5.30542 4.300873 -9.606293 9.606293 -9.606293l0 0c2.5477295 0 4.99115 1.012085 6.7926636 2.8135986c1.8015442 1.8015442 2.8136292 4.244934 2.8136292 6.792694l0 0c0 5.30542 -4.300873 9.606293 -9.606293 9.606293l0 0c-5.30542 0 -9.606293 -4.300873 -9.606293 -9.606293z" fill-rule="evenodd"/><path stroke="#cc0000" stroke-width="3.0" stroke-linejoin="round" stroke-linecap="butt" d="m460.7874 420.91077l0 0c0 -5.30542 4.300873 -9.606293 9.606293 -9.606293l0 0c2.5477295 0 4.99115 1.012085 6.7926636 2.8135986c1.8015442 1.8015442 2.8136292 4.244934 2.8136292 6.792694l0 0c0 5.30542 -4.300873 9.606293 -9.606293 9.606293l0 0c-5.30542 0 -9.606293 -4.300873 -9.606293 -9.606293z" fill-rule="evenodd"/><path fill="#000000" fill-opacity="0.0" d="m560.0 420.91077l0 0c0 -5.30542 4.3009033 -9.606293 9.606323 -9.606293l0 0c2.5477295 0 4.99115 1.012085 6.7926636 2.8135986c1.8015137 1.8015442 2.8135986 4.244934 2.8135986 6.792694l0 0c0 5.30542 -4.3009033 9.606293 -9.606262 9.606293l0 0c-5.30542 0 -9.606323 -4.300873 -9.606323 -9.606293z" fill-rule="evenodd"/><path stroke="#cc0000" stroke-width="3.0" stroke-linejoin="round" stroke-linecap="butt" d="m560.0 420.91077l0 0c0 -5.30542 4.3009033 -9.606293 9.606323 -9.606293l0 0c2.5477295 0 4.99115 1.012085 6.7926636 2.8135986c1.8015137 1.8015442 2.8135986 4.244934 2.8135986 6.792694l0 0c0 5.30542 -4.3009033 9.606293 -9.606262 9.606293l0 0c-5.30542 0 -9.606323 -4.300873 -9.606323 -9.606293z" fill-rule="evenodd"/><path fill="#000000" fill-opacity="0.0" d="m576.0 436.91077l0 0c0 -5.30542 4.3009033 -9.606293 9.606323 -9.606293l0 0c2.5477295 0 4.99115 1.012085 6.7926636 2.8135986c1.8015137 1.8015442 2.8135986 4.244934 2.8135986 6.792694l0 0c0 5.30542 -4.3009033 9.606293 -9.606262 9.606293l0 0c-5.30542 0 -9.606323 -4.300873 -9.606323 -9.606293z" fill-rule="evenodd"/><path stroke="#cc0000" stroke-width="3.0" stroke-linejoin="round" stroke-linecap="butt" d="m576.0 436.91077l0 0c0 -5.30542 4.3009033 -9.606293 9.606323 -9.606293l0 0c2.5477295 0 4.99115 1.012085 6.7926636 2.8135986c1.8015137 1.8015442 2.8135986 4.244934 2.8135986 6.792694l0 0c0 5.30542 -4.3009033 9.606293 -9.606262 9.606293l0 0c-5.30542 0 -9.606323 -4.300873 -9.606323 -9.606293z" fill-rule="evenodd"/><path fill="#000000" fill-opacity="0.0" d="m191.17323 431.65878l0 -294.67715l55.685028 0l0 294.67715z" fill-rule="evenodd"/><path fill="#000000" d="m246.25322 410.20566l-30.3125 0l0 11.328125l-4.046875 0l0 -27.234375l4.046875 0l0 11.359375l30.3125 0l0 4.546875zm-8.015625 -37.070312l0.53125 -4.359375q3.828125 1.03125 5.9375 3.828125q2.109375 2.78125 2.109375 7.109375q0 5.46875 -3.359375 8.671875q-3.375 3.1875 -9.4375 3.1875q-6.28125 0 -9.75 -3.234375q-3.46875 -3.234375 -3.46875 -8.390625q0 -4.984375 3.40625 -8.140625q3.390625 -3.171875 9.546875 -3.171875q0.375 0 1.125 0.015625l0 18.5625q4.109375 -0.234375 6.296875 -2.3125q2.171875 -2.09375 2.171875 -5.203125q0 -2.328125 -1.21875 -3.96875q-1.21875 -1.640625 -3.890625 -2.59375zm-6.828125 13.84375l0 -13.890625q-3.140625 0.28125 -4.703125 1.59375q-2.4375 2.015625 -2.4375 5.21875q0 2.90625 1.953125 4.890625q1.9375 1.984375 5.1875 2.1875zm14.84375 -23.507812l-24.890625 0l0 -3.765625l3.484375 0q-1.828125 -1.171875 -2.9375 -3.109375q-1.109375 -1.953125 -1.109375 -4.4375q0 -2.765625 1.15625 -4.53125q1.140625 -1.78125 3.203125 -2.5q-4.359375 -2.953125 -4.359375 -7.6875q0 -3.703125 2.046875 -5.6875q2.046875 -2.0 6.3125 -2.0l17.09375 0l0 4.1875l-15.6875 0q-2.53125 0 -3.640625 0.421875q-1.109375 0.40625 -1.78125 1.484375q-0.6875 1.078125 -0.6875 2.53125q0 2.625 1.75 4.359375q1.734375 1.734375 5.578125 1.734375l14.46875 0l0 4.21875l-16.171875 0q-2.8125 0 -4.21875 1.03125q-1.40625 1.03125 -1.40625 3.375q0 1.78125 0.9375 3.296875q0.9375 1.5 2.75 2.1875q1.796875 0.671875 5.1875 0.671875l12.921875 0l0 4.21875zm9.54689 -39.984375l-34.437515 0l0 -3.84375l3.234375 0q-1.90625 -1.359375 -2.84375 -3.0625q-0.953125 -1.71875 -0.953125 -4.15625q0 -3.1875 1.640625 -5.625q1.640625 -2.4375 4.625 -3.671875q2.984375 -1.25 6.546875 -1.25q3.828125 0 6.890625 1.375q3.046875 1.375 4.6875 3.984375q1.625 2.609375 1.625 5.5q0 2.109375 -0.890625 3.78125q-0.890625 1.671875 -2.25 2.75l12.125015 0l0 4.21875zm-21.85939 -3.8125q4.8125 0 7.109375 -1.9375q2.296875 -1.953125 2.296875 -4.71875q0 -2.8125 -2.375 -4.8125q-2.390625 -2.015625 -7.375 -2.015625q-4.765625 0 -7.125 1.96875q-2.375 1.953125 -2.375 4.671875q0 2.6875 2.53125 4.765625q2.515625 2.078125 7.3125 2.078125zm4.296875 -39.914062l0.53125 -4.359375q3.828125 1.03125 5.9375 3.828125q2.109375 2.78125 2.109375 7.109375q0 5.46875 -3.359375 8.671875q-3.375 3.1875 -9.4375 3.1875q-6.28125 0 -9.75 -3.234375q-3.46875 -3.234375 -3.46875 -8.390625q0 -4.984375 3.40625 -8.140625q3.390625 -3.171875 9.546875 -3.171875q0.375 0 1.125 0.015625l0 18.5625q4.109375 -0.234375 6.296875 -2.3125q2.171875 -2.09375 2.171875 -5.203125q0 -2.328125 -1.21875 -3.96875q-1.21875 -1.640625 -3.890625 -2.59375zm-6.828125 13.84375l0 -13.890625q-3.140625 0.28125 -4.703125 1.59375q-2.4375 2.015625 -2.4375 5.21875q0 2.90625 1.953125 4.890625q1.9375 1.984375 5.1875 2.1875zm14.84375 -23.460938l-24.890625 0l0 -3.796875l3.765625 0q-2.640625 -1.453125 -3.484375 -2.671875q-0.84375 -1.234375 -0.84375 -2.71875q0 -2.125 1.359375 -4.328125l3.90625 1.453125q-0.90625 1.546875 -0.90625 3.09375q0 1.375 0.828125 2.484375q0.828125 1.09375 2.3125 1.5625q2.25 0.703125 4.921875 0.703125l13.03125 0l0 4.21875zm-3.078125 -32.26561q2.0 2.34375 2.828125 4.515625q0.8125 2.15625 0.8125 4.640625q0 4.109375 -2.0 6.3125q-2.015625 2.203125 -5.125 2.203125q-1.828125 0 -3.34375 -0.828125q-1.515625 -0.84375 -2.421875 -2.1875q-0.921875 -1.34375 -1.390625 -3.03125q-0.328125 -1.25 -0.625 -3.75q-0.609375 -5.109375 -1.453125 -7.53125q-0.875 -0.015625 -1.109375 -0.015625q-2.578125 0 -3.625 1.1875q-1.4375 1.625 -1.4375 4.8125q0 2.96875 1.046875 4.390625q1.046875 1.421875 3.6875 2.09375l-0.5625 4.125q-2.640625 -0.5625 -4.265625 -1.84375q-1.640625 -1.296875 -2.515625 -3.734375q-0.875 -2.4375 -0.875 -5.640625q0 -3.1875 0.75 -5.171875q0.75 -2.0 1.890625 -2.9375q1.125 -0.9375 2.859375 -1.3125q1.078125 -0.21875 3.890625 -0.21875l5.625 0q5.890625 0 7.453125 -0.265625q1.546875 -0.265625 2.984375 -1.0625l0 4.40625q-1.3125 0.65625 -3.078125 0.84375zm-9.421875 0.34375q0.9375 2.296875 1.59375 6.890625q0.375 2.609375 0.84375 3.6875q0.46875 1.078125 1.375 1.671875q0.90625 0.578125 2.0 0.578125q1.6875 0 2.8125 -1.28125q1.125 -1.28125 1.125 -3.734375q0 -2.4375 -1.0625 -4.328125q-1.0625 -1.90625 -2.921875 -2.796875q-1.421875 -0.6875 -4.21875 -0.6875l-1.546875 0zm8.71875 -20.007812l3.734375 -0.609375q0.375 1.78125 0.375 3.1875q0 2.296875 -0.71875 3.5625q-0.734375 1.265625 -1.921875 1.78125q-1.1875 0.515625 -4.984375 0.515625l-14.3125 0l0 3.09375l-3.28125 0l0 -3.09375l-6.171875 0l-2.53125 -4.203125l8.703125 0l0 -4.234375l3.28125 0l0 4.234375l14.546875 0q1.8125 0 2.328125 -0.21875q0.515625 -0.21875 0.828125 -0.71875q0.296875 -0.515625 0.296875 -1.453125q0 -0.703125 -0.171875 -1.84375zm3.78125 -20.445312l-3.65625 0q4.21875 2.90625 4.21875 7.90625q0 2.203125 -0.84375 4.109375q-0.84375 1.90625 -2.125 2.84375q-1.28125 0.921875 -3.125 1.296875q-1.25 0.25 -3.9375 0.25l-15.421875 0l0 -4.21875l13.796875 0q3.3125 0 4.453125 -0.25q1.671875 -0.40625 2.625 -1.6875q0.9375 -1.296875 0.9375 -3.1875q0 -1.90625 -0.96875 -3.5625q-0.96875 -1.671875 -2.640625 -2.359375q-1.6875 -0.6875 -4.875 -0.6875l-13.328125 0l0 -4.21875l24.890625 0l0 3.765625zm0 -10.3359375l-24.890625 0l0 -3.796875l3.765625 0q-2.640625 -1.453125 -3.484375 -2.671875q-0.84375 -1.234375 -0.84375 -2.71875q0 -2.125 1.359375 -4.328125l3.90625 1.453125q-0.90625 1.546875 -0.90625 3.09375q0 1.375 0.828125 2.484375q0.828125 1.09375 2.3125 1.5625q2.25 0.703125 4.921875 0.703125l13.03125 0l0 4.21875zm-8.015625 -33.0625l0.53125 -4.359375q3.828125 1.03125 5.9375 3.828125q2.109375 2.78125 2.109375 7.109375q0 5.46875 -3.359375 8.671875q-3.375 3.1875 -9.4375 3.1875q-6.28125 0 -9.75 -3.234375q-3.46875 -3.234375 -3.46875 -8.390625q0 -4.984375 3.40625 -8.140625q3.390625 -3.171875 9.546875 -3.171875q0.375 0 1.125 0.015625l0 18.5625q4.109375 -0.234375 6.296875 -2.3125q2.171875 -2.09375 2.171875 -5.203125q0 -2.328125 -1.21875 -3.96875q-1.21875 -1.640625 -3.890625 -2.59375zm-6.828125 13.84375l0 -13.890625q-3.140625 0.28125 -4.703125 1.59375q-2.4375 2.015625 -2.4375 5.21875q0 2.90625 1.953125 4.890625q1.9375 1.984375 5.1875 2.1875z" fill-rule="nonzero"/><path fill="#000000" fill-opacity="0.0" d="m360.4252 461.76904l190.04721 0l0 55.684998l-190.04721 0z" fill-rule="evenodd"/><path fill="#000000" d="m373.20645 516.849l0 -34.359344l15.234375 0q4.59375 0 6.984375 0.921875q2.390625 0.921875 3.8125 3.265625q1.4375 2.34375 1.4375 5.1875q0 3.65625 -2.375 6.171875q-2.359375 2.5 -7.3125 3.171875q1.8125 0.875 2.75 1.71875q1.984375 1.828125 3.765625 4.5625l5.984375 9.3593445l-5.71875 0l-4.546875 -7.1562195q-2.0 -3.09375 -3.296875 -4.734375q-1.28125 -1.640625 -2.296875 -2.296875q-1.015625 -0.65625 -2.078125 -0.90625q-0.765625 -0.171875 -2.53125 -0.171875l-5.265625 0l0 15.2655945l-4.546875 0zm4.546875 -19.203094l9.765625 0q3.125 0 4.875 -0.640625q1.765625 -0.640625 2.671875 -2.0625q0.921875 -1.421875 0.921875 -3.078125q0 -2.4375 -1.78125 -4.0q-1.765625 -1.578125 -5.578125 -1.578125l-10.875 0l0 11.359375zm45.742188 16.12497q-2.34375 2.0 -4.515625 2.828125q-2.15625 0.8125 -4.640625 0.8125q-4.109375 0 -6.3125 -2.0q-2.203125 -2.015625 -2.203125 -5.1249695q0 -1.828125 0.828125 -3.34375q0.84375 -1.515625 2.1875 -2.421875q1.34375 -0.921875 3.03125 -1.390625q1.25 -0.328125 3.75 -0.625q5.109375 -0.609375 7.53125 -1.453125q0.015625 -0.875 0.015625 -1.109375q0 -2.578125 -1.1875 -3.625q-1.625 -1.4375 -4.8125 -1.4375q-2.96875 0 -4.390625 1.046875q-1.421875 1.046875 -2.09375 3.6875l-4.125 -0.5625q0.5625 -2.640625 1.84375 -4.265625q1.296875 -1.640625 3.734375 -2.515625q2.4375 -0.875 5.640625 -0.875q3.1875 0 5.171875 0.75q2.0 0.75 2.9375 1.890625q0.9375 1.125 1.3125 2.859375q0.21875 1.078125 0.21875 3.890625l0 5.625q0 5.8905945 0.265625 7.4530945q0.265625 1.546875 1.0625 2.984375l-4.40625 0q-0.65625 -1.3125 -0.84375 -3.078125zm-0.34375 -9.4218445q-2.296875 0.9375 -6.890625 1.59375q-2.609375 0.375 -3.6875 0.84375q-1.078125 0.46875 -1.671875 1.375q-0.578125 0.90625 -0.578125 2.0q0 1.6875 1.28125 2.8124695q1.28125 1.125 3.734375 1.125q2.4375 0 4.328125 -1.0625q1.90625 -1.0624695 2.796875 -2.9218445q0.6875 -1.421875 0.6875 -4.21875l0 -1.546875zm10.8203125 -17.015625l0 -4.84375l4.21875 0l0 4.84375l-4.21875 0zm0 29.515594l0 -24.890594l4.21875 0l0 24.890594l-4.21875 0zm10.6484375 0l0 -24.890594l3.796875 0l0 3.53125q2.734375 -4.09375 7.921875 -4.09375q2.25 0 4.125 0.8125q1.890625 0.796875 2.828125 2.109375q0.9375 1.3125 1.3125 3.125q0.234375 1.171875 0.234375 4.09375l0 15.3124695l-4.21875 0l0 -15.1405945q0 -2.578125 -0.5 -3.859375q-0.484375 -1.28125 -1.734375 -2.03125q-1.25 -0.765625 -2.9375 -0.765625q-2.703125 0 -4.65625 1.71875q-1.953125 1.703125 -1.953125 6.484375l0 13.5937195l-4.21875 0zm27.695312 0l0 -21.609344l-3.71875 0l0 -3.28125l3.71875 0l0 -2.65625q0 -2.5 0.453125 -3.71875q0.609375 -1.640625 2.140625 -2.65625q1.53125 -1.03125 4.296875 -1.03125q1.78125 0 3.9375 0.421875l-0.625 3.6875q-1.3125 -0.234375 -2.484375 -0.234375q-1.921875 0 -2.71875 0.828125q-0.796875 0.8125 -0.796875 3.0625l0 2.296875l4.84375 0l0 3.28125l-4.84375 0l0 21.609344l-4.203125 0zm28.570312 -3.078125q-2.34375 2.0 -4.515625 2.828125q-2.15625 0.8125 -4.640625 0.8125q-4.109375 0 -6.3125 -2.0q-2.203125 -2.015625 -2.203125 -5.1249695q0 -1.828125 0.828125 -3.34375q0.84375 -1.515625 2.1875 -2.421875q1.34375 -0.921875 3.03125 -1.390625q1.25 -0.328125 3.75 -0.625q5.109375 -0.609375 7.53125 -1.453125q0.015625 -0.875 0.015625 -1.109375q0 -2.578125 -1.1875 -3.625q-1.625 -1.4375 -4.8125 -1.4375q-2.96875 0 -4.390625 1.046875q-1.421875 1.046875 -2.09375 3.6875l-4.125 -0.5625q0.5625 -2.640625 1.84375 -4.265625q1.296875 -1.640625 3.734375 -2.515625q2.4375 -0.875 5.640625 -0.875q3.1875 0 5.171875 0.75q2.0 0.75 2.9375 1.890625q0.9375 1.125 1.3125 2.859375q0.21875 1.078125 0.21875 3.890625l0 5.625q0 5.8905945 0.265625 7.4530945q0.265625 1.546875 1.0625 2.984375l-4.40625 0q-0.65625 -1.3125 -0.84375 -3.078125zm-0.34375 -9.4218445q-2.296875 0.9375 -6.890625 1.59375q-2.609375 0.375 -3.6875 0.84375q-1.078125 0.46875 -1.671875 1.375q-0.578125 0.90625 -0.578125 2.0q0 1.6875 1.28125 2.8124695q1.28125 1.125 3.734375 1.125q2.4375 0 4.328125 -1.0625q1.90625 -1.0624695 2.796875 -2.9218445q0.6875 -1.421875 0.6875 -4.21875l0 -1.546875zm10.7109375 12.4999695l0 -34.359344l4.2187195 0l0 34.359344l-4.2187195 0zm10.664032 0l0 -34.359344l4.21875 0l0 34.359344l-4.21875 0z" fill-rule="nonzero"/></g></svg>