<?xml version="1.0" encoding="UTF-8" standalone="no"?>
<!DOCTYPE svg PUBLIC "-//W3C//DTD SVG 1.1//EN"
 "http://www.w3.org/Graphics/SVG/1.1/DTD/svg11.dtd">
<!-- Generated by graphviz version 2.40.1 (20161225.0304)
 -->
<!-- Title: %0 Pages: 1 -->
<svg width="625pt" height="382pt"
 viewBox="0.00 0.00 625.09 381.60" xmlns="http://www.w3.org/2000/svg" xmlns:xlink="http://www.w3.org/1999/xlink">
<g id="graph0" class="graph" transform="scale(1 1) rotate(0) translate(4 377.6)">
<title>%0</title>
<polygon fill="#ffffff" stroke="transparent" points="-4,4 -4,-377.6 621.0913,-377.6 621.0913,4 -4,4"/>
<!-- setup -->
<g id="node1" class="node">
<title>setup</title>
<ellipse fill="none" stroke="#a020f0" cx="84.4779" cy="-105.8" rx="44.1179" ry="18"/>
<text text-anchor="middle" x="84.4779" y="-101.6" font-family="Helvetica,sans-Serif" font-size="14.00" fill="#000000">setup.R</text>
</g>
<!-- packrat -->
<g id="node6" class="node">
<title>packrat</title>
<polygon fill="none" stroke="#c0c0c0" points="117.2678,-177.8 51.688,-177.8 51.688,-141.8 117.2678,-141.8 117.2678,-177.8"/>
<text text-anchor="middle" x="84.4779" y="-155.6" font-family="Helvetica,sans-Serif" font-size="14.00" fill="#000000">packrat/</text>
</g>
<!-- setup&#45;&gt;packrat -->
<g id="edge1" class="edge">
<title>setup&#45;&gt;packrat</title>
<path fill="none" stroke="#000000" d="M110.8862,-120.5656C115.1865,-124.4211 117.4541,-128.2765 117.689,-132.1319"/>
<polygon fill="#000000" stroke="#000000" points="114.329,-131.1234 114.086,-141.7154 120.8813,-133.5867 114.329,-131.1234"/>
</g>
<!-- functions -->
<g id="node7" class="node">
<title>functions</title>
<polygon fill="none" stroke="#c0c0c0" points="122.3868,-69.4019 46.5691,-69.4019 46.5691,-28.1981 122.3868,-28.1981 122.3868,-69.4019"/>
<text text-anchor="middle" x="84.4779" y="-53" font-family="Helvetica,sans-Serif" font-size="14.00" fill="#000000">functions/</text>
<text text-anchor="middle" x="84.4779" y="-36.2" font-family="Helvetica,sans-Serif" font-size="14.00" fill="#000000">(.R)</text>
</g>
<!-- setup&#45;&gt;functions -->
<g id="edge3" class="edge">
<title>setup&#45;&gt;functions</title>
<path fill="none" stroke="#000000" d="M84.4779,-87.7648C84.4779,-85.1347 84.4779,-82.5046 84.4779,-79.8745"/>
<polygon fill="#000000" stroke="#000000" points="87.978,-79.7297 84.4779,-69.7297 80.978,-79.7297 87.978,-79.7297"/>
</g>
<!-- data_processing -->
<g id="node2" class="node">
<title>data_processing</title>
<ellipse fill="none" stroke="#0000ff" cx="84.4779" cy="-284.8" rx="84.4558" ry="29.3315"/>
<text text-anchor="middle" x="84.4779" y="-289" font-family="Helvetica,sans-Serif" font-size="14.00" fill="#000000">data&#45;processing/</text>
<text text-anchor="middle" x="84.4779" y="-272.2" font-family="Helvetica,sans-Serif" font-size="14.00" fill="#000000">(.R)</text>
</g>
<!-- derived_data -->
<g id="node9" class="node">
<title>derived_data</title>
<polygon fill="none" stroke="#c0c0c0" points="148.7942,-237.4019 20.1616,-237.4019 20.1616,-196.1981 148.7942,-196.1981 148.7942,-237.4019"/>
<text text-anchor="middle" x="84.4779" y="-221" font-family="Helvetica,sans-Serif" font-size="14.00" fill="#000000">data/derived&#45;data/</text>
<text text-anchor="middle" x="84.4779" y="-204.2" font-family="Helvetica,sans-Serif" font-size="14.00" fill="#000000">(.csv, .tiff)</text>
</g>
<!-- data_processing&#45;&gt;derived_data -->
<g id="edge5" class="edge">
<title>data_processing&#45;&gt;derived_data</title>
<path fill="none" stroke="#000000" d="M84.4779,-255.2492C84.4779,-252.7559 84.4779,-250.2625 84.4779,-247.7692"/>
<polygon fill="#000000" stroke="#000000" points="87.978,-247.5187 84.4779,-237.5188 80.978,-247.5188 87.978,-247.5187"/>
</g>
<!-- analyses -->
<g id="node3" class="node">
<title>analyses</title>
<ellipse fill="none" stroke="#0000ff" cx="280.6171" cy="-284.8" rx="53.2468" ry="29.3315"/>
<text text-anchor="middle" x="280.6171" y="-289" font-family="Helvetica,sans-Serif" font-size="14.00" fill="#000000">analyses/</text>
<text text-anchor="middle" x="280.6171" y="-272.2" font-family="Helvetica,sans-Serif" font-size="14.00" fill="#000000">(.R)</text>
</g>
<!-- outputs -->
<g id="node11" class="node">
<title>outputs</title>
<polygon fill="none" stroke="#c0c0c0" points="313.4196,-237.4019 247.8146,-237.4019 247.8146,-196.1981 313.4196,-196.1981 313.4196,-237.4019"/>
<text text-anchor="middle" x="280.6171" y="-221" font-family="Helvetica,sans-Serif" font-size="14.00" fill="#000000">outputs/</text>
<text text-anchor="middle" x="280.6171" y="-204.2" font-family="Helvetica,sans-Serif" font-size="14.00" fill="#000000">(.csv)</text>
</g>
<!-- analyses&#45;&gt;outputs -->
<g id="edge7" class="edge">
<title>analyses&#45;&gt;outputs</title>
<path fill="none" stroke="#000000" d="M280.6171,-255.2492C280.6171,-252.7559 280.6171,-250.2625 280.6171,-247.7692"/>
<polygon fill="#000000" stroke="#000000" points="284.1172,-247.5187 280.6171,-237.5188 277.1172,-247.5188 284.1172,-247.5187"/>
</g>
<!-- make_figures -->
<g id="node4" class="node">
<title>make_figures</title>
<ellipse fill="none" stroke="#0000ff" cx="280.6171" cy="-148.8" rx="71.6373" ry="29.3315"/>
<text text-anchor="middle" x="280.6171" y="-153" font-family="Helvetica,sans-Serif" font-size="14.00" fill="#000000">figures/make*</text>
<text text-anchor="middle" x="280.6171" y="-136.2" font-family="Helvetica,sans-Serif" font-size="14.00" fill="#000000">(.R)</text>
</g>
<!-- figures -->
<g id="node10" class="node">
<title>figures</title>
<polygon fill="none" stroke="#c0c0c0" points="311.5134,-101.4019 249.7208,-101.4019 249.7208,-60.1981 311.5134,-60.1981 311.5134,-101.4019"/>
<text text-anchor="middle" x="280.6171" y="-85" font-family="Helvetica,sans-Serif" font-size="14.00" fill="#000000">figures/</text>
<text text-anchor="middle" x="280.6171" y="-68.2" font-family="Helvetica,sans-Serif" font-size="14.00" fill="#000000">(.png)</text>
</g>
<!-- make_figures&#45;&gt;figures -->
<g id="edge9" class="edge">
<title>make_figures&#45;&gt;figures</title>
<path fill="none" stroke="#000000" d="M280.6171,-119.2492C280.6171,-116.7559 280.6171,-114.2625 280.6171,-111.7692"/>
<polygon fill="#000000" stroke="#000000" points="284.1172,-111.5187 280.6171,-101.5188 277.1172,-111.5188 284.1172,-111.5187"/>
</g>
<!-- render -->
<g id="node5" class="node">
<title>render</title>
<ellipse fill="none" stroke="#0000ff" cx="504.6848" cy="-80.8" rx="112.3129" ry="18"/>
<text text-anchor="middle" x="504.6848" y="-76.6" font-family="Consolas" font-size="14.00" fill="#000000">bookdown::render_book()</text>
</g>
<!-- final -->
<g id="node13" class="node">
<title>final</title>
<polygon fill="none" stroke="#000000" points="558.4802,-44.8 450.8894,-44.8 450.8894,-8.8 558.4802,-8.8 558.4802,-44.8"/>
<text text-anchor="middle" x="504.6848" y="-22.6" font-family="Helvetica,sans-Serif" font-size="14.00" fill="#000000">manuscript.pdf</text>
</g>
<!-- render&#45;&gt;final -->
<g id="edge15" class="edge">
<title>render&#45;&gt;final</title>
<path fill="none" stroke="#000000" d="M504.6848,-62.5902C504.6848,-60.1082 504.6848,-57.6262 504.6848,-55.1443"/>
<polygon fill="#000000" stroke="#000000" points="508.1849,-54.9406 504.6848,-44.9406 501.1849,-54.9407 508.1849,-54.9406"/>
</g>
<!-- packrat&#45;&gt;setup -->
<g id="edge2" class="edge">
<title>packrat&#45;&gt;setup</title>
<path fill="none" stroke="#000000" d="M54.8698,-141.7154C51.3779,-137.4194 50.4099,-133.1233 51.9659,-128.8273"/>
<polygon fill="#000000" stroke="#000000" points="54.9425,-130.6885 58.0696,-120.5656 49.3123,-126.5289 54.9425,-130.6885"/>
</g>
<!-- raw_data -->
<g id="node8" class="node">
<title>raw_data</title>
<polygon fill="none" stroke="#c0c0c0" points="137.4474,-373.4019 31.5085,-373.4019 31.5085,-332.1981 137.4474,-332.1981 137.4474,-373.4019"/>
<text text-anchor="middle" x="84.4779" y="-357" font-family="Helvetica,sans-Serif" font-size="14.00" fill="#000000">data/raw&#45;data/</text>
<text text-anchor="middle" x="84.4779" y="-340.2" font-family="Helvetica,sans-Serif" font-size="14.00" fill="#000000">(.csv, .tiff)</text>
</g>
<!-- raw_data&#45;&gt;data_processing -->
<g id="edge4" class="edge">
<title>raw_data&#45;&gt;data_processing</title>
<path fill="none" stroke="#000000" d="M84.4779,-332.0377C84.4779,-329.5411 84.4779,-327.0446 84.4779,-324.548"/>
<polygon fill="#000000" stroke="#000000" points="87.978,-324.2843 84.4779,-314.2844 80.978,-324.2844 87.978,-324.2843"/>
</g>
<!-- derived_data&#45;&gt;analyses -->
<g id="edge6" class="edge">
<title>derived_data&#45;&gt;analyses</title>
<path fill="none" stroke="#000000" d="M144.125,-237.4792C170.2088,-246.5223 200.6001,-257.0587 226.0753,-265.8907"/>
<polygon fill="#000000" stroke="#000000" points="224.9841,-269.2168 235.5789,-269.1856 227.2771,-262.603 224.9841,-269.2168"/>
</g>
<!-- derived_data&#45;&gt;make_figures -->
<g id="edge11" class="edge">
<title>derived_data&#45;&gt;make_figures</title>
<path fill="none" stroke="#000000" d="M144.125,-196.1208C166.807,-188.2571 192.7461,-179.2642 215.8774,-171.2448"/>
<polygon fill="#000000" stroke="#000000" points="217.2995,-174.4562 225.6013,-167.8736 215.0065,-167.8424 217.2995,-174.4562"/>
</g>
<!-- figures&#45;&gt;render -->
<g id="edge12" class="edge">
<title>figures&#45;&gt;render</title>
<path fill="none" stroke="#000000" d="M311.7728,-80.8C330.5925,-80.8 355.932,-80.8 382.0469,-80.8"/>
<polygon fill="#000000" stroke="#000000" points="382.0817,-84.3001 392.0817,-80.8 382.0817,-77.3001 382.0817,-84.3001"/>
</g>
<!-- manuscript -->
<g id="node12" class="node">
<title>manuscript</title>
<polygon fill="none" stroke="#c0c0c0" points="356.4401,-41.4019 204.7942,-41.4019 204.7942,-.1981 356.4401,-.1981 356.4401,-41.4019"/>
<text text-anchor="middle" x="280.6171" y="-25" font-family="Helvetica,sans-Serif" font-size="14.00" fill="#000000">manuscript/</text>
<text text-anchor="middle" x="280.6171" y="-8.2" font-family="Helvetica,sans-Serif" font-size="14.00" fill="#000000">(.Rmd, .yml, .bib, .csl)</text>
</g>
<!-- figures&#45;&gt;manuscript -->
<g id="edge10" class="edge">
<title>figures&#45;&gt;manuscript</title>
<path fill="none" stroke="#000000" d="M280.6171,-60.1896C280.6171,-57.3554 280.6171,-54.5212 280.6171,-51.6869"/>
<polygon fill="#000000" stroke="#000000" points="284.1172,-51.425 280.6171,-41.425 277.1172,-51.425 284.1172,-51.425"/>
</g>
<!-- outputs&#45;&gt;make_figures -->
<g id="edge8" class="edge">
<title>outputs&#45;&gt;make_figures</title>
<path fill="none" stroke="#000000" d="M280.6171,-196.0377C280.6171,-193.5411 280.6171,-191.0446 280.6171,-188.548"/>
<polygon fill="#000000" stroke="#000000" points="284.1172,-188.2843 280.6171,-178.2844 277.1172,-188.2844 284.1172,-188.2843"/>
</g>
<!-- outputs&#45;&gt;render -->
<g id="edge13" class="edge">
<title>outputs&#45;&gt;render</title>
<path fill="none" stroke="#000000" d="M313.4303,-205.7738C327.029,-200.7013 342.7532,-194.1688 356.2784,-186.8 400.057,-162.9485 446.1253,-128.337 475.1049,-105.2249"/>
<polygon fill="#000000" stroke="#000000" points="477.5706,-107.7333 483.1686,-98.7381 473.183,-102.279 477.5706,-107.7333"/>
</g>
<!-- manuscript&#45;&gt;render -->
<g id="edge14" class="edge">
<title>manuscript&#45;&gt;render</title>
<path fill="none" stroke="#000000" d="M348.3651,-41.4308C362.8189,-45.6614 378.0237,-49.9843 392.2784,-53.8 404.5168,-57.0759 417.5542,-60.378 430.2526,-63.494"/>
<polygon fill="#000000" stroke="#000000" points="429.7979,-66.9855 440.342,-65.9492 431.453,-60.1839 429.7979,-66.9855"/>
</g>
</g>
</svg>

